<?xml version="1.0" encoding="utf-8"?>
<!-- Generator: Adobe Illustrator 24.3.0, SVG Export Plug-In . SVG Version: 6.00 Build 0)  -->
<svg version="1.1" id="Capa_1" xmlns="http://www.w3.org/2000/svg" xmlns:xlink="http://www.w3.org/1999/xlink" x="0px" y="0px"
	 viewBox="0 0 1920 1080" style="enable-background:new 0 0 1920 1080;" xml:space="preserve">
<style type="text/css">
	.st0{fill:#293A7B;}
	.st1{fill:#FF1A39;}
	.st2{fill:#FDFDFD;}
	.st3{fill:#F8C28D;}
	.st4{fill:#FFFFFF;}
	.st5{font-family:'TimesNewRomanPS-BoldMT';}
	.st6{font-size:94.44px;}
</style>
<path class="st0" d="M1064,672.89c-0.52-0.26-1.02-0.19-1.51,0.1c-1.5,0.86-3.13,0.45-4.7,0.45c-39.15,0.03-78.31-0.04-117.46,0.1
	c-3.89,0.01-5.08-0.9-5.07-4.97c0.13-79.3,0.1-158.59,0.06-237.89c0-2.93-0.19-5,4.05-4.98c39.79,0.17,79.59,0.1,119.38,0.11
	c0.95,0,1.93-0.15,2.78,0.47c0.48,0.29,0.98,0.36,1.49,0.09c2.29,1,4.86-0.28,7.14,0.85c0.22,0.25,0.47,0.27,0.74,0.08
	c1.87,1.09,4.14-0.32,5.99,0.94l0.24,0.21l0.29-0.14c1.33,0.73,2.97-0.08,4.26,0.84c0.17,0.26,0.38,0.29,0.62,0.11
	c1.27,0.81,2.94-0.16,4.15,0.93l-0.06-0.02c1.13,0.98,2.8-0.15,3.9,0.98l-0.06-0.02c1.1,1.02,2.85-0.25,3.87,1.09l-0.1-0.06
	c0.89,0.68,2.21-0.04,3,0.94l-0.07-0.03c0.83,0.78,2.18,0.01,2.95,0.98l-0.06-0.03c0.81,0.8,2.2-0.02,2.93,1.04l-0.09-0.05
	c0.62,0.42,1.46,0.3,2.04,0.81c0.12,0.27,0.3,0.33,0.55,0.18c0.78,0.28,1.69,0.24,2.31,0.92l-0.06-0.03
	c0.6,0.47,1.44,0.36,2.02,0.88l0.02,0.01c0.67,0.97,2.21-0.03,2.77,1.21l-0.11-0.07c0.69,0.32,1.59,0.19,2.05,0.98l-0.09-0.06
	c0.65,0.38,1.56,0.24,2.02,1l-0.09-0.06c0.63,0.41,1.57,0.24,1.99,1.04l-0.09-0.06c0.65,0.38,1.61,0.2,1.98,1.08l-0.1-0.08
	c1.18,0.33,2.11,1.08,3.08,1.78l-0.03-0.01c0.52,0.55,1.5,0.34,1.89,1.12l-0.09-0.06c1.09,0.49,2.12,1.08,2.99,1.91l-0.06-0.04
	c1.02,0.6,2.11,1.1,2.93,1.99l-0.08-0.07c0.45,0.18,0.73,0.58,1.12,0.84l0.03,0.02c0.41,0.65,1.48,0.38,1.74,1.25l-0.12-0.11
	c0.56,0.09,0.87,0.48,1.16,0.91l-0.06-0.05c0.42,0.22,0.71,0.6,1.08,0.88l0.02,0.02c0.8,0.86,2.09,1.1,2.72,2.18l-0.11-0.11
	c0.55,0.12,0.89,0.5,1.12,0.98l-0.09-0.08c0.47,0.2,0.8,0.56,1.08,0.97l-0.05-0.05c0.4,0.25,0.71,0.61,1.04,0.95l-0.01-0.01
	c2.62,1.87,4.86,4.12,6.73,6.73l-0.01-0.01c0.34,0.32,0.69,0.63,0.95,1.03l-0.05-0.05c0.4,0.29,0.76,0.61,0.97,1.08l-0.08-0.08
	c0.48,0.24,0.86,0.57,0.98,1.12l-0.11-0.11c1.07,0.63,1.32,1.92,2.18,2.72l0.02,0.02c0.28,0.37,0.65,0.66,0.88,1.08l-0.05-0.06
	c0.43,0.29,0.83,0.6,0.92,1.16l-0.11-0.12c0.87,0.26,0.6,1.33,1.24,1.75l0.02,0.03c0.27,0.38,0.68,0.66,0.84,1.13l-0.08-0.09
	c0.91,0.82,1.41,1.9,1.98,2.94l-0.05-0.08c0.72,0.39,0.48,1.38,1.12,1.82l0.02,0.03c0.29,0.38,0.69,0.68,0.79,1.19l-0.1-0.12
	c0.84,0.37,0.63,1.35,1.13,1.92l-0.04-0.06c0.67,0.45,0.47,1.39,1.05,1.9v-0.01c0.56,0.5,0.35,1.41,0.99,1.86l0.02,0.04
	c0.5,0.53,0.29,1.42,0.95,1.86l0.02,0.05c0.48,0.54,0.29,1.42,0.93,1.88l0.02,0.04c0.49,0.56,0.34,1.42,0.91,1.94l0,0
	c0.55,0.56,0.43,1.42,0.91,2l-0.03-0.06c0.66,0.54,0.56,1.4,0.9,2.07l-0.07-0.11c1.2,0.64,0.28,2.11,1.13,2.87l-0.02-0.05
	c0.95,0.73,0.11,2.11,1.03,2.86l0,0c0.53,0.71,0.59,1.58,0.83,2.39l-0.09,0.29l0.23,0.2c0.84,0.81,0.09,2.12,0.92,2.93l-0.01-0.04
	c0.87,0.9,0.27,2.21,0.9,3.18c-0.16,0.26-0.12,0.48,0.14,0.65c0.74,0.94,0.21,2.21,0.82,3.18c-0.17,0.26-0.13,0.48,0.13,0.65
	c0.96,1.16-0.06,2.76,0.88,3.93l-0.03-0.07c1.22,1.56,0.03,3.55,0.94,5.16l-0.14,0.3l0.21,0.26c1.29,2.19-0.21,4.75,0.93,6.96
	c-0.2,0.26-0.18,0.5,0.06,0.73c0.79,11.2,0.78,22.4,0.01,33.61c-0.29,0.47-0.37,0.95-0.1,1.45c-0.95,1.98,0.27,4.28-0.88,6.23
	c-0.25,0.17-0.28,0.38-0.08,0.61c-0.92,1.6,0.26,3.58-0.92,5.13l0.02-0.06c-0.96,1.15,0.06,2.75-0.87,3.91
	c-0.26,0.19-0.3,0.42-0.13,0.69c-0.89,1.22,0.24,2.94-1.02,4.07l0.05-0.09c-0.68,0.89-0.03,2.17-0.88,3.01l0.01-0.02
	c-0.86,0.79-0.11,2.09-0.91,2.9c-0.26,0.14-0.32,0.33-0.16,0.58c-0.29,0.76-0.27,1.63-0.8,2.3l-0.24,0.22l0.08,0.32
	c-0.26,0.79-0.27,1.67-0.86,2.34l0.01-0.03c-0.89,0.75,0.03,2.21-1.12,2.86l0.06-0.1c-0.37,0.66-0.27,1.51-0.89,2.06l0.02-0.04
	c-0.51,0.56-0.39,1.42-0.9,1.99l-0.01,0.02c-1,0.64,0.06,2.23-1.26,2.73l0.08-0.11c-0.27,0.71-0.11,1.64-1.03,2.03l0.08-0.1
	c-0.3,0.7-0.11,1.66-1.08,1.99l0.11-0.13c0.01,0.56-0.43,0.86-0.73,1.24l-0.01,0.02c-0.62,0.47-0.42,1.4-1.03,1.87l0.02-0.04
	c-0.54,0.54-0.33,1.51-1.11,1.91l0.06-0.09c-0.48,1.1-1.09,2.11-1.89,3l0.04-0.05c-0.51,0.54-0.26,1.6-1.22,1.84l0.12-0.12
	c0,0.61-0.43,0.91-0.86,1.21l0.04-0.06c-0.64,0.99-1.06,2.15-2.06,2.88l0.1-0.1c-0.14,0.51-0.52,0.83-0.9,1.14l0.02-0.03
	c-0.75,0.91-1.02,2.18-2.18,2.77l0.11-0.11c-0.06,0.61-0.45,0.93-0.97,1.15l0.09-0.1c-0.17,0.5-0.54,0.83-0.96,1.1l0.06-0.06
	c-0.24,0.42-0.6,0.73-0.94,1.05l0.01-0.02c-2.49,3.28-5.38,6.16-8.65,8.65l0.01-0.01c-0.32,0.34-0.63,0.7-1.05,0.94l0.06-0.05
	c-0.28,0.42-0.61,0.79-1.1,0.97l0.09-0.09c-0.22,0.51-0.55,0.9-1.14,0.97l0.11-0.11c-0.59,1.14-1.87,1.41-2.76,2.18l0.02-0.02
	c-0.32,0.37-0.64,0.74-1.13,0.9l0.1-0.09c-0.74,0.98-1.91,1.38-2.86,2.07l0.04-0.03c-0.31,0.41-0.62,0.82-1.19,0.86l0.12-0.12
	c-0.28,0.91-1.32,0.66-1.83,1.22l0.03-0.02c-0.33,0.38-0.63,0.8-1.21,0.83l0.12-0.11c-0.29,0.93-1.31,0.7-1.88,1.18l0.07-0.04
	c-0.43,0.69-1.39,0.47-1.85,1.09l-0.02,0.01c-0.38,0.3-0.68,0.73-1.22,0.77l0.12-0.11c-0.34,0.91-1.32,0.71-1.95,1.12l0.09-0.06
	c-0.43,0.78-1.37,0.6-1.97,1.06l0.07-0.04c-0.47,0.7-1.39,0.54-1.97,1.02l0.06-0.04c-0.5,0.67-1.39,0.53-1.99,0.98l0.07-0.04
	c-0.5,0.69-1.39,0.56-2.02,0.97l0.09-0.05c-0.49,0.75-1.37,0.64-2.07,0.95l0.11-0.07c-0.58,1.25-2.1,0.27-2.81,1.19l0.02-0.01
	c-0.57,0.57-1.41,0.49-2.07,0.86l0.1-0.06c-0.67,1.13-2.11,0.24-2.89,1.09l0.05-0.02c-0.75,0.94-2.11,0.12-2.88,1.01h0.01
	c-0.79,0.86-2.12,0.1-2.91,0.96l0.02-0.01c-0.81,0.86-2.12,0.16-2.96,0.92l0.07-0.03c-0.91,0.94-2.25,0.36-3.27,0.93l-0.31-0.1
	l-0.23,0.23c-0.95,0.8-2.25,0.27-3.26,0.85l-0.32-0.11l-0.26,0.22c-1.15,1-2.77-0.05-3.92,0.9l0.06-0.03
	c-1.49,1.24-3.47-0.06-4.99,0.97l-0.4-0.11l-0.35,0.21c-1.58,0.99-3.5-0.08-5.1,0.83l-0.35-0.13l-0.31,0.21
	C1068.87,673.21,1066.29,671.87,1064,672.89z"/>
<path class="st0" d="M920.1,482.83c-1.59-0.06-3.18-0.19-4.77-0.19c-43.89-0.01-87.77-0.01-131.66,0c-1.74,0-3.51-0.26-5.23,0.28
	c-1.08,6.94-0.41,13.92-0.43,20.88c-0.02,5.2-0.68,10.45,0.43,15.63c1.42,0.1,2.84,0.3,4.26,0.3c32.34,0.02,64.68,0.02,97.02,0
	c1.26,0,2.53-0.17,3.79-0.26c1.51,0.56,0.92,1.88,0.92,2.87c0.04,16.91,0.04,33.82,0,50.73c0,0.99,0.59,2.31-0.92,2.87
	c-1.26-0.09-2.53-0.26-3.79-0.26c-32.34-0.01-64.68-0.02-97.02,0c-1.42,0-2.84,0.2-4.26,0.3c-1.08,5.67-0.46,11.4-0.44,17.1
	c0.03,7.78-0.6,15.58,0.38,23.34l-0.03-0.03c1.67,0.82,3.46,0.42,5.2,0.42c45.26,0.03,90.51,0.02,135.77,0.02
	c5.44,0,5.45,0.01,5.45,5.38c0,15.68-0.09,31.36,0.08,47.03c0.04,3.39-0.98,4.27-4.31,4.26c-68.13-0.09-136.25-0.1-204.38,0.01
	c-3.68,0.01-4.48-1.09-4.48-4.6c0.1-79.51,0.11-159.02-0.02-238.53c-0.01-3.96,1.27-4.68,4.88-4.68c66.53,0.1,133.05,0.1,199.58,0
	c3.58-0.01,4.97,0.64,4.91,4.66c-0.25,16.15-0.08,32.31-0.14,48.47C920.88,480.19,921.66,481.78,920.1,482.83z"/>
<path class="st0" d="M1408.24,427.33c0.26,0.19,0.49,0.16,0.68-0.1c1.55-1.06,3.48,0.09,5.05-0.87c0.27,0.19,0.5,0.15,0.71-0.1
	c4.32-1.7,4.33,1.01,4.32,4.07c-0.03,43.33,0.02,86.66-0.07,129.99c-0.02,8.12,0.67,16.26-0.45,24.36
	c-0.24,0.22-0.26,0.46-0.05,0.71c-1.1,2.22,0.3,4.75-0.88,6.96c-0.25,0.21-0.28,0.45-0.09,0.71c-0.99,1.56,0.24,3.53-0.92,5.06
	l-0.21,0.22l0.13,0.28c-0.52,1.05-0.09,2.32-0.8,3.32c-0.26,0.19-0.3,0.41-0.14,0.68c-0.64,0.96-0.05,2.25-0.86,3.17l-0.23,0.23
	l0.1,0.31c-0.59,1.01,0.07,2.39-1,3.25l0.05-0.09c-0.72,0.86,0.09,2.25-1.03,2.96l0.06-0.1c-0.37,0.65-0.27,1.49-0.81,2.07
	l-0.24,0.2l0.07,0.3c-0.26,0.81-0.23,1.73-0.94,2.35l0.04-0.08c-0.44,0.61-0.33,1.47-0.9,2.03l0.01-0.02
	c-0.56,0.53-0.41,1.39-0.91,1.95l-0.01,0.04c-0.63,0.47-0.45,1.34-0.93,1.89l-0.02,0.05c-0.66,0.44-0.45,1.33-0.96,1.86l-0.02,0.03
	c-0.64,0.46-0.43,1.37-1.01,1.87l0.01-0.02c-0.57,0.51-0.37,1.47-1.08,1.9l0.05-0.07c-0.47,0.59-0.24,1.59-1.16,1.91l0.11-0.12
	c-0.04,0.56-0.46,0.86-0.82,1.21l0.01-0.02c-0.57,0.5-0.33,1.52-1.19,1.84l0.11-0.12c-0.09,0.53-0.49,0.84-0.86,1.17l0.02-0.02
	c-0.57,0.49-0.3,1.57-1.26,1.78l0.12-0.12c-0.01,0.62-0.42,0.93-0.91,1.19l0.08-0.09c-0.19,0.46-0.55,0.77-0.9,1.11l0.01-0.01
	c-0.8,0.85-1.05,2.16-2.2,2.73l0.11-0.11c-0.07,0.61-0.45,0.94-0.99,1.13l0.1-0.1c-0.16,0.52-0.53,0.86-0.99,1.1l0.07-0.08
	c-0.22,0.46-0.57,0.79-0.99,1.06l0.05-0.05c-0.25,0.41-0.6,0.74-0.98,1.03l0.03-0.04c-0.28,0.38-0.62,0.7-0.97,1.01l0.02-0.02
	c-0.3,0.36-0.63,0.68-0.98,0.98l0.02-0.02c-0.3,0.36-0.63,0.7-1.01,0.97l0.04-0.03c-0.29,0.38-0.61,0.73-1.03,0.98l0.06-0.05
	c-0.27,0.42-0.61,0.77-1.06,0.99l0.08-0.08c-0.24,0.47-0.58,0.84-1.1,0.99l0.1-0.1c-0.19,0.54-0.52,0.93-1.13,0.99l0.11-0.12
	c-0.57,1.16-1.88,1.4-2.73,2.2l0.01-0.01c-0.34,0.34-0.65,0.71-1.11,0.9l0.09-0.08c-0.25,0.49-0.57,0.9-1.18,0.92l0.12-0.12
	c-0.21,0.95-1.3,0.68-1.77,1.26l0.01-0.01c-0.34,0.35-0.65,0.74-1.16,0.86l0.11-0.1c-0.33,0.82-1.35,0.57-1.81,1.19l-0.01,0.01
	c-0.36,0.32-0.67,0.71-1.18,0.82l0.12-0.1c-0.35,0.83-1.35,0.61-1.87,1.16l0.03-0.02c-0.95,0.72-1.91,1.42-3.05,1.82l0.1-0.07
	c-0.39,0.83-1.35,0.64-1.96,1.09l0.08-0.05c-0.46,0.72-1.38,0.55-1.97,1.03l0.06-0.04c-0.49,0.67-1.39,0.52-1.98,1l0.06-0.03
	c-0.5,0.67-1.39,0.53-2.01,0.97l0.07-0.04c-0.5,0.71-1.38,0.59-2.05,0.95l0.1-0.07c-0.6,1.18-2.1,0.21-2.79,1.17H1358
	c-0.58,0.53-1.42,0.44-2.05,0.86l0.08-0.04c-0.7,1.06-2.11,0.19-2.88,1.07l0.03-0.01c-0.69,0.58-1.57,0.62-2.38,0.86l-0.29-0.09
	l-0.2,0.23c-0.79,0.85-2.12,0.06-2.9,0.94l0.02-0.01c-0.83,0.85-2.12,0.16-2.98,0.9l0.08-0.04c-1.06,1.21-2.76,0.01-3.87,1.03
	l0.05-0.02c-1.12,1.09-2.76,0-3.92,0.95l0.07-0.03c-1.42,1.3-3.39-0.09-4.86,1l0.06-0.03c-1.81,1.33-4.09-0.15-5.93,0.98l-0.4-0.12
	l-0.36,0.21c-2.22,1.13-4.75-0.21-6.98,0.85l-0.36-0.15l-0.33,0.2c-10.56,0.82-21.12,0.82-31.68,0l-0.33-0.2l-0.35,0.15
	c-2.23-1.07-4.77,0.29-6.99-0.86l-0.35-0.21l-0.39,0.12c-1.55-0.98-3.47,0.16-5.01-0.85l-0.34-0.22l-0.39,0.1
	c-1.23-0.86-2.84,0.07-4.06-0.85l-0.32-0.22l-0.37,0.1c-1.23-0.87-2.92,0.19-4.08-0.98l0.07,0.04c-0.86-0.74-2.12-0.08-2.97-0.84
	l-0.29-0.23l-0.36,0.08c-0.96-0.64-2.3,0.01-3.16-0.94l0.06,0.03c-0.83-0.78-2.17-0.03-2.94-0.97l0.05,0.02
	c-0.8-0.82-2.19,0-2.92-1.03l0.07,0.04c-0.8-0.8-2.27,0.11-2.9-1.13l0.11,0.07c-0.7-0.29-1.55-0.22-2.09-0.87l0.06,0.03
	c-0.59-0.48-1.44-0.36-2.01-0.89l-0.01-0.01c-0.66-0.98-2.23,0.05-2.75-1.24l0.11,0.08c-0.7-0.3-1.62-0.15-2.03-1.01l0.1,0.07
	c-0.68-0.33-1.62-0.16-2.02-1.04l0.1,0.07c-0.68-0.33-1.65-0.13-1.98-1.09l0.13,0.11c-0.56-0.01-0.85-0.44-1.24-0.74l-0.02-0.01
	c-0.46-0.63-1.4-0.41-1.86-1.05l0.05,0.03c-0.55-0.52-1.54-0.31-1.9-1.14l0.12,0.1c-0.5-0.11-0.81-0.51-1.18-0.8l-0.03-0.01
	c-0.45-0.64-1.44-0.4-1.82-1.15l0.1,0.08c-0.47-0.15-0.75-0.56-1.14-0.83l-0.03-0.02c-0.42-0.65-1.47-0.39-1.77-1.21l0.11,0.1
	c-0.52-0.12-0.83-0.51-1.15-0.88l0.03,0.02c-0.91-0.75-2.13-1.07-2.8-2.13l0.11,0.11c-0.54-0.12-0.87-0.5-1.14-0.95l0.07,0.06
	c-0.44-0.22-0.74-0.59-1.07-0.92l0.01,0.01c-1.7-1.21-3.29-2.53-4.63-4.14l0.11,0.11c-0.65-0.06-1.01-0.41-1.07-1.06l0.11,0.11
	c-0.65-0.06-1.01-0.42-1.07-1.07l0.12,0.11c-1.61-1.34-2.91-2.94-4.15-4.61l0,0c-0.32-0.34-0.68-0.65-0.91-1.06l0.05,0.06
	c-0.42-0.28-0.8-0.61-0.94-1.13l0.1,0.1c-1.03-0.69-1.36-1.91-2.12-2.8l0.01,0.02c-0.35-0.33-0.74-0.65-0.88-1.15l0.1,0.11
	c-0.8-0.32-0.54-1.36-1.19-1.78l-0.02-0.04c-0.26-0.39-0.68-0.67-0.82-1.14l0.08,0.1c-0.76-0.37-0.52-1.37-1.14-1.83l-0.01-0.02
	c-0.31-0.37-0.72-0.67-0.8-1.2l0.1,0.12c-0.87-0.36-0.66-1.34-1.13-1.93l0.05,0.07c-0.7-0.45-0.51-1.39-1.06-1.92l0.02,0.03
	c-0.6-0.5-0.42-1.4-1-1.91v0.01c-0.56-0.53-0.39-1.41-0.96-1.93v0.01c-0.56-0.54-0.42-1.41-0.93-1.97l0.02,0.04
	c-0.61-0.54-0.5-1.4-0.92-2.03l0.05,0.09c-0.75-0.6-0.7-1.54-0.96-2.34l0.07-0.3l-0.24-0.2c-0.54-0.58-0.42-1.42-0.82-2.06
	l0.05,0.09c-1.09-0.72-0.27-2.11-1.04-2.94l0.04,0.08c-1.01-0.77-0.27-2.11-0.97-2.99l0.05,0.1c-1.31-1.02-0.05-2.76-1.08-3.86
	l0.02,0.05c-1.11-1.11-0.01-2.77-0.96-3.92l0.03,0.07c-1.27-1.48,0.05-3.47-0.98-5c0.18-0.28,0.14-0.52-0.1-0.74
	c-0.96-1.64,0.01-3.59-0.82-5.25c0.26-0.51,0.17-1-0.12-1.47c-0.74-1.18-0.44-2.49-0.44-3.75c-0.01-51.17,0-102.33-0.03-153.5
	c0-3.07-0.01-5.8,4.33-4l0.26,0.21l0.31-0.13c1.63,0.9,3.6-0.24,5.19,0.9l0.24,0.21l0.29-0.14c1.64,0.88,3.64-0.25,5.23,0.91
	l0.23,0.2l0.26-0.15c1.64,0.87,3.64-0.25,5.23,0.92l-0.06-0.02c1.49,1.05,3.38-0.16,4.87,0.87c0.23,0.25,0.48,0.28,0.77,0.11
	c1.54,1,3.46-0.17,4.99,0.87c0.22,0.25,0.46,0.28,0.74,0.1c1.55,0.98,3.48-0.18,5.02,0.87c0.2,0.25,0.43,0.28,0.7,0.1
	c1.57,0.95,3.51-0.2,5.07,0.88c0.18,0.26,0.39,0.29,0.64,0.09c1.6,0.92,3.55-0.22,5.12,0.88c0.17,0.26,0.37,0.28,0.6,0.08
	c1.62,0.91,3.59-0.24,5.17,0.9l0.25,0.21l0.29-0.14c1.64,0.89,3.63-0.26,5.22,0.91l0.22,0.2l0.25-0.15
	c5.73,0.85,5.73,0.85,5.73,6.83c0,42.46,0,84.92,0.02,127.38c0,1.73-0.36,3.51,0.38,5.2c-0.21,0.23-0.19,0.44,0.06,0.63
	c1.09,1.63,0.03,3.61,0.88,5.28l-0.14,0.26l0.2,0.22c1.09,1.14,0.02,2.79,0.93,3.98l-0.05-0.08c1.27,1.02,0.01,2.76,1.08,3.84
	l-0.01-0.03c0.89,0.77,0.09,2.11,0.98,2.88v-0.01c0.56,0.58,0.48,1.42,0.85,2.07l-0.06-0.1c0.81,0.56,0.73,1.51,1,2.31
	c-0.13,0.26-0.06,0.43,0.21,0.52c0.29,0.37,0.71,0.67,0.67,1.22l-0.11-0.12c0.98,0.31,0.77,1.3,1.11,1.97l-0.08-0.1
	c0.86,0.35,0.65,1.34,1.15,1.91l-0.04-0.05c0.84,0.84,1.3,1.94,1.98,2.9l-0.02-0.03c0.38,0.31,0.76,0.63,0.91,1.13l-0.09-0.1
	c0.53,0.21,0.92,0.53,0.96,1.15l-0.11-0.11c1.67,1.61,3.24,3.32,4.97,4.86l-0.11-0.1c0.55,0.11,0.87,0.49,1.15,0.93l-0.07-0.06
	c0.42,0.21,0.71,0.59,1.09,0.85l0.04,0.03c0.42,0.66,1.43,0.41,1.79,1.16l-0.08-0.06c0.61,0.43,1.62,0.21,1.92,1.16l-0.12-0.11
	c0.56-0.01,0.86,0.43,1.25,0.72l0.03,0.01c0.63,1.01,2.23-0.05,2.72,1.27l-0.11-0.08c0.72,0.25,1.56,0.18,2.11,0.86l-0.06-0.03
	c0.83,0.78,2.18,0,2.95,0.99l-0.06-0.03c1.14,0.97,2.82-0.19,3.9,1l-0.07-0.04c1.5,1.01,3.4-0.18,4.89,0.87
	c0.5,0.3,1.01,0.37,1.55,0.12c4.68,0.61,9.36,0.67,14.03-0.03c0.26,0.2,0.51,0.18,0.73-0.06c1.6-1.06,3.55,0.02,5.18-0.86l0.32,0.12
	l0.26-0.22c0.95-0.81,2.25-0.28,3.26-0.85c0.25,0.16,0.44,0.11,0.58-0.15c0.69-0.52,1.55-0.53,2.33-0.8
	c0.25,0.15,0.44,0.09,0.56-0.18c0.57-0.52,1.42-0.37,2-0.85l-0.06,0.03c0.51-0.66,1.4-0.53,2.02-0.96l-0.08,0.05
	c0.45-0.72,1.38-0.55,1.95-1.04l-0.05,0.03c0.43-0.65,1.39-0.42,1.82-1.08l0.05-0.03c0.39-0.25,0.67-0.66,1.14-0.82l-0.09,0.08
	c0.74-0.95,1.95-1.27,2.78-2.09l0.02-0.01c0.36-0.28,0.66-0.63,1.02-0.91l-0.03,0.03c0.3-0.37,0.62-0.72,1.03-0.97l-0.05,0.05
	c0.27-0.41,0.6-0.75,1.01-1.01l-0.05,0.05c0.25-0.41,0.6-0.73,0.97-1.03l-0.03,0.03c0.28-0.36,0.63-0.66,0.9-1.02l0.02-0.02
	c0.84-0.82,1.15-2.04,2.1-2.78l-0.08,0.09c0.15-0.47,0.56-0.75,0.83-1.14l0.02-0.04c0.65-0.44,0.41-1.41,1.11-1.82l-0.04,0.07
	c0.47-0.59,0.28-1.55,1.1-1.95l-0.07,0.1c0.36-0.66,0.2-1.6,1.04-2.01l-0.07,0.1c0.33-0.68,0.21-1.57,0.95-2.06l-0.05,0.08
	c0.41-0.63,0.32-1.48,0.87-2.05v0.01c0.9-0.76,0.08-2.12,1.01-2.87l-0.02,0.04c0.82-0.82,0.08-2.12,0.91-2.93
	c0.26-0.15,0.31-0.34,0.14-0.59c0.57-1.01,0.06-2.29,0.82-3.25c0.26-0.18,0.3-0.4,0.12-0.66c0.95-1.59-0.25-3.56,0.92-5.11
	l0.21-0.25l-0.15-0.29c1.04-2.62-0.33-5.49,0.85-8.09c0.34-0.84,0.43-1.68,0.09-2.54c0.74-1.68,0.38-3.46,0.39-5.2
	c0.02-39.87,0.01-79.75,0.05-119.62c0-1.7-0.57-3.51,0.56-5.11l-0.1,0.09c1.47-1.3,3.47,0.04,4.99-0.99
	c0.28,0.18,0.53,0.14,0.75-0.1c1.54-1.03,3.45,0.13,4.99-0.86c0.28,0.18,0.54,0.14,0.77-0.1c1.49-1.03,3.38,0.17,4.88-0.87
	l-0.06,0.03c1.76-1.34,4.02,0.18,5.81-0.99l-0.05,0.02c1.6-1.16,3.59-0.05,5.23-0.91l0.26,0.15l0.23-0.2
	c1.59-1.15,3.58-0.02,5.22-0.91l0.29,0.14l0.25-0.21c1.58-1.14,3.56,0,5.19-0.9l0.31,0.13l0.26-0.21c1.57-1.12,3.53,0.03,5.14-0.89
	c0.24,0.2,0.44,0.17,0.62-0.09c1.57-1.09,3.52,0.04,5.12-0.88c0.25,0.19,0.46,0.16,0.64-0.09
	C1404.72,427.12,1406.66,428.27,1408.24,427.33z"/>
<path class="st0" d="M608.58,485.79c-0.62,1.54-0.35,3.16-0.35,4.74c-0.01,59.08-0.01,118.16,0,177.25c0,1.58,0.18,3.17,0.28,4.75
	c-1.14,1.77-2.91,0.88-4.35,0.88c-19.34,0.07-38.69,0.05-58.03,0.04c-5.18,0-5.19-0.01-5.19-5.16c0-59.17,0-118.35,0-177.52
	c0-5.47-0.01-5.47-5.34-5.47c-27.34,0-54.68-0.06-82.01,0.07c-3.64,0.02-4.93-0.78-4.87-4.72c0.23-16.79,0.2-33.59,0.01-50.38
	c-0.04-3.59,0.91-4.56,4.53-4.55c81.37,0.11,162.75,0.11,244.12,0c3.69,0,4.89,0.86,4.84,4.73c-0.22,16.79-0.2,33.59-0.01,50.38
	c0.04,3.59-0.93,4.56-4.53,4.54c-27.98-0.15-55.95-0.09-83.93-0.06C612.03,485.33,610.23,484.86,608.58,485.79z"/>
<path class="st1" d="M1365.85,681.56l-0.36-0.11l-0.35,0.15c-4.18,1.34-8.57-0.28-12.75,0.91c-3.65-0.27-7.31-0.29-10.96-0.01
	c-2.46-0.87-5.02-0.15-7.51-0.46c-0.55-0.18-0.79-0.56-0.72-1.13c0.84-1.26,2.41-0.32,3.4-1.12c0.25,0.15,0.49,0.12,0.7-0.08
	c1.47-1.12,3.39,0.15,4.87-0.92l-0.06,0.03c1.23-1.09,2.9-0.15,4.2-0.92c0.22,0.15,0.41,0.13,0.57-0.08
	c1.11-1.08,2.77,0.07,3.89-0.97l-0.03,0.01c0.89-0.85,2.2-0.25,3.15-0.9c0.27,0.11,0.5,0.06,0.69-0.15c0.69-0.5,1.54-0.51,2.31-0.78
	c0.22,0.13,0.41,0.09,0.56-0.12c0.78-0.87,2.12-0.05,2.88-0.97l0,0c0.65-0.55,1.51-0.52,2.25-0.85c0.26,0.1,0.48,0.04,0.65-0.18
	c0.57-0.5,1.41-0.36,1.99-0.84l-0.06,0.03c0.6-0.68,1.51-0.61,2.25-0.93c0.26,0.09,0.47,0.03,0.62-0.2c0.55-0.49,1.4-0.31,1.91-0.88
	h-0.01c0.54-0.56,1.41-0.42,1.97-0.94l-0.04,0.02c0.51-0.62,1.4-0.48,1.98-0.97l-0.05,0.03c0.49-0.65,1.4-0.49,1.96-1.01l-0.04,0.03
	c0.49-0.63,1.4-0.45,1.92-1.02l-0.01,0.01c0.48-0.57,1.41-0.35,1.84-1.01l0.05-0.03c0.39-0.25,0.67-0.66,1.14-0.81l-0.1,0.09
	c0.41-0.77,1.37-0.57,1.92-1.1l-0.04,0.03c0.89-0.78,1.94-1.32,2.95-1.93l-0.05,0.04c0.84-0.84,1.95-1.29,2.89-1.99l-0.03,0.02
	c0.32-0.37,0.64-0.73,1.1-0.92l-0.08,0.09c0.74-0.96,1.93-1.31,2.81-2.09h-0.01c0.34-0.33,0.64-0.69,1.06-0.93l-0.06,0.06
	c0.27-0.43,0.6-0.79,1.08-0.98l-0.08,0.09c0.22-0.5,0.55-0.86,1.09-1.01l-0.09,0.11c2.71-2.49,5.27-5.11,7.8-7.77l-0.11,0.09
	c0.13-0.56,0.5-0.89,1.01-1.09l-0.09,0.09c0.18-0.5,0.54-0.84,0.99-1.09l-0.07,0.07c0.23-0.44,0.58-0.76,0.96-1.07l-0.03,0.04
	c0.27-0.36,0.63-0.65,0.87-1.04l0.04-0.05c0.67-0.41,0.4-1.45,1.2-1.76l-0.11,0.1c0.16-0.5,0.53-0.82,0.94-1.11l-0.03,0.05
	c0.64-0.99,1.12-2.09,2-2.91l-0.07,0.07c0.2-0.43,0.59-0.71,0.83-1.1l0.03-0.06c0.67-0.42,0.43-1.38,1.09-1.81l-0.04,0.05
	c0.51-0.56,0.31-1.52,1.09-1.93l-0.1,0.1c0.14-0.47,0.56-0.75,0.8-1.14l0.03-0.06c0.67-0.43,0.45-1.34,0.99-1.84v-0.01
	c0.6-0.5,0.41-1.39,0.97-1.91l0,0c0.58-0.51,0.41-1.39,0.95-1.93v-0.01c0.6-0.49,0.39-1.36,0.89-1.89c0.22-0.15,0.29-0.35,0.2-0.61
	c0.31-0.76,0.24-1.67,0.94-2.26l-0.04,0.07c0.47-0.59,0.32-1.45,0.86-2.01c0.22-0.15,0.27-0.34,0.16-0.58
	c0.29-0.77,0.28-1.64,0.86-2.3l-0.01,0.02c0.86-0.79,0.09-2.12,0.96-2.91l-0.01,0.02c0.87-0.79,0.13-2.07,0.89-2.88
	c0.21-0.21,0.26-0.46,0.15-0.74c0.67-0.93,0.08-2.2,0.84-3.11c0.21-0.21,0.25-0.45,0.12-0.71c0.86-1.25-0.12-2.9,0.9-4.1
	c0.21-0.18,0.23-0.39,0.08-0.62c0.91-1.61-0.23-3.57,0.88-5.14c0.2-0.21,0.22-0.44,0.06-0.68c1.11-2.56-0.35-5.41,0.88-7.95
	c0.29-0.84,0.38-1.69,0.09-2.55c0.76-1.85,0.38-3.8,0.38-5.69c0.02-50.3,0.01-99.94,0.05-150.21c0-2.19-1.04-5.04,2.6-5.63
	c0.26,0.14,0.5,0.11,0.72-0.08c1.54-1.08,3.47,0.1,5.02-0.88c0.27,0.14,0.51,0.11,0.74-0.09c1.53-1.06,3.46,0.12,5-0.88
	c0.27,0.14,0.53,0.11,0.76-0.09c1.53-1.05,3.45,0.14,4.98-0.88c0.28,0.14,0.54,0.11,0.78-0.09c1.52-1.04,3.44,0.15,4.96-0.87
	c0.29,0.13,0.55,0.1,0.8-0.09c1.52-1.03,3.43,0.16,4.95-0.87c0.29,0.13,0.56,0.1,0.81-0.09c1.61-0.55,3.21-0.86,4.76,0.17l-0.1-0.11
	c0.96,1.1,0.57,2.44,0.57,3.68c0.02,49.93,0.02,100.89,0,154.81c0,1.25,0.31,2.57-0.47,3.73c-0.29,1.18-0.37,2.37-0.07,3.57
	c-1.18,3.21,0.41,6.68-0.91,9.88c-0.19,0.22-0.21,0.45-0.05,0.69c-0.94,1.57,0.15,3.48-0.83,5.04c-0.2,0.25-0.23,0.52-0.1,0.81
	c-0.91,1.2,0.05,2.79-0.85,3.99c-0.2,0.23-0.24,0.49-0.12,0.77c-0.92,1.2,0.18,2.89-0.99,4.02l0.04-0.07
	c-0.77,0.85-0.06,2.14-0.9,2.97c-0.21,0.16-0.26,0.35-0.13,0.58c-0.29,0.76-0.28,1.62-0.8,2.29c-0.22,0.17-0.27,0.37-0.15,0.62
	c-0.31,0.74-0.3,1.61-0.84,2.27l0,0c-0.92,0.74-0.05,2.15-1.06,2.85l0.04-0.06c-0.47,0.59-0.36,1.45-0.89,2.01v0.01
	c-0.95,0.7,0.01,2.2-1.17,2.8l0.07-0.09c-0.37,0.65-0.23,1.56-1,2.02l0.06-0.08c-0.41,0.63-0.25,1.56-1.03,2l0.06-0.09
	c-0.4,0.64-0.22,1.58-1.07,1.98l0.11-0.1c-0.12,0.49-0.51,0.8-0.82,1.16l-0.01,0.01c-0.61,0.48-0.4,1.42-1.06,1.87l0.04-0.05
	c-0.51,0.56-0.3,1.54-1.12,1.92l0.11-0.1c-0.15,0.49-0.53,0.8-0.88,1.14l0.01-0.02c-0.57,0.51-0.34,1.51-1.15,1.87l0.11-0.1
	c-0.16,0.5-0.53,0.81-0.92,1.12l0.03-0.04c-0.7,0.95-1.1,2.11-2.06,2.86l0.1-0.08c-0.19,0.47-0.56,0.8-0.96,1.09l0.05-0.05
	c-0.25,0.39-0.61,0.69-0.9,1.05l-0.01,0.02c-0.85,0.81-1.1,2.1-2.17,2.72l0.11-0.09c-0.14,0.55-0.5,0.89-1.02,1.08l0.09-0.09
	c-0.18,0.51-0.54,0.85-1.02,1.07l0.09-0.09c-0.21,0.48-0.56,0.83-1.04,1.05l0.08-0.08c-0.21,0.48-0.56,0.83-1.03,1.05l0.08-0.08
	c-0.22,0.47-0.57,0.82-1.05,1.04l0.08-0.08c-0.22,0.48-0.56,0.83-1.06,1.03l0.09-0.09c-0.21,0.5-0.55,0.86-1.07,1.03l0.09-0.11
	c-1.09,1.22-2.45,2.11-3.73,3.09l0,0c-0.34,0.32-0.65,0.68-1.06,0.92l0.06-0.06c-0.28,0.42-0.6,0.79-1.1,0.96l0.1-0.11
	c-0.32,0.79-1.36,0.53-1.76,1.2l-0.05,0.03c-0.39,0.25-0.68,0.62-1.07,0.85l0.06-0.05c-0.29,0.41-0.61,0.79-1.13,0.93l0.1-0.11
	c-0.34,0.84-1.35,0.61-1.87,1.16l0.03-0.02c-0.32,0.38-0.63,0.76-1.13,0.9l0.1-0.11c-0.37,0.83-1.35,0.63-1.91,1.13l0.05-0.04
	c-0.44,0.66-1.39,0.44-1.85,1.07l-0.03,0.02c-0.38,0.28-0.66,0.7-1.15,0.82l0.1-0.1c-0.41,0.81-1.36,0.63-1.96,1.08l0.08-0.05
	c-0.46,0.73-1.38,0.56-1.97,1.04l0.06-0.04c-0.49,0.68-1.39,0.52-1.98,1l0.06-0.04c-0.49,0.67-1.39,0.52-1.99,0.99l0.07-0.04
	c-0.5,0.69-1.39,0.55-2.02,0.97l0.09-0.06c-0.64,1.11-2.11,0.17-2.8,1.14l-0.03,0.01c-0.58,0.51-1.42,0.4-2.01,0.87l0.06-0.04
	c-0.71,1-2.11,0.13-2.85,1.06l0,0c-0.65,0.54-1.52,0.52-2.25,0.84l-0.35-0.04l-0.29,0.2c-0.66,0.51-1.51,0.47-2.24,0.8l-0.35-0.05
	l-0.29,0.2c-0.82,0.8-2.11,0.06-2.91,0.9l0.03-0.01c-0.89,0.86-2.2,0.25-3.16,0.9l-0.36-0.06l-0.32,0.19
	c-0.94,0.75-2.21,0.21-3.18,0.83l-0.35-0.08l-0.3,0.18c-1.2,0.98-2.83,0-4.05,0.88l-0.39-0.07l-0.36,0.18
	c-1.48,1.05-3.38-0.18-4.85,0.89l0.05-0.02C1370.62,681.94,1368.06,680.42,1365.85,681.56z"/>
<path class="st0" d="M1287.04,416.65l-0.25-0.22l-0.31,0.13c-1.32-0.75-2.96,0.11-4.23-0.87l-0.26-0.22l-0.31,0.12
	c-1.31-0.75-2.95,0.1-4.22-0.86l-0.27-0.22l-0.33,0.12c-1.3-0.77-2.93,0.1-4.2-0.85l-0.28-0.22l-0.34,0.11
	c-1.29-0.78-2.92,0.1-4.17-0.85l-0.29-0.22l-0.34,0.11c-1.29-0.78-2.91,0.09-4.17-0.85l-0.3-0.22l-0.35,0.11
	c-1.28-0.79-2.89,0.08-4.14-0.84l-0.31-0.22l-0.37,0.11c-1.26-0.82-2.88,0.08-4.12-0.84l-0.32-0.22l-0.37,0.11
	c-1.26-0.83-2.86,0.07-4.1-0.84l-0.33-0.22l-0.38,0.1c-1.25-0.83-2.86,0.06-4.09-0.84l-0.34-0.22l-0.39,0.1
	c-1.53-1.02-3.53,0.31-5.01-0.99l0.07,0.04c-1.48-1.06-3.45,0.31-4.87-1l0.07,0.04c-1.48-1.06-3.44,0.3-4.87-0.99l0.07,0.03
	c-0.59-0.47-1.53-0.3-1.96-1.06l0.1,0.13c-0.83-0.75-0.62-1.76-0.62-2.69c-0.01-13.56-0.01-27.13,0.01-40.69
	c0-0.9-0.33-1.96,0.8-2.53l-0.13,0.19c0.11-0.56,0.36-0.63,0.75-0.22c0.19,0.23,0.39,0.23,0.59,0.01c1,0.58,2.28,0.06,3.24,0.83
	c0.16,0.26,0.37,0.3,0.62,0.13c0.99,0.59,2.27,0.07,3.22,0.82c0.17,0.26,0.38,0.3,0.64,0.13c0.98,0.6,2.26,0.07,3.2,0.83
	c0.17,0.26,0.38,0.3,0.64,0.13c0.98,0.6,2.25,0.07,3.2,0.82c0.18,0.26,0.4,0.3,0.67,0.14c0.97,0.62,2.23,0.08,3.17,0.82
	c0.18,0.26,0.4,0.31,0.67,0.14c0.97,0.62,2.23,0.08,3.17,0.82c0.18,0.26,0.4,0.3,0.67,0.14c1.24,0.86,2.96-0.24,4.1,1.01l-0.09-0.05
	c1.16,0.92,2.86-0.25,3.93,1.01l-0.09-0.05c1.16,0.91,2.86-0.25,3.93,1.01l-0.09-0.05c1.16,0.91,2.85-0.24,3.93,1l-0.08-0.05
	c1.15,0.93,2.85-0.23,3.92,1.01l-0.08-0.05c1.16,0.93,2.84-0.22,3.93,1l-0.08-0.04c1.15,0.94,2.84-0.21,3.92,1l-0.08-0.04
	c1.15,0.94,2.84-0.21,3.92,1l-0.08-0.04c1.15,0.94,2.83-0.2,3.92,0.99l-0.07-0.04c1.14,0.96,2.83-0.19,3.91,1l-0.08-0.04
	c0.6,0.48,1.65,0.29,1.92,1.26c-0.06,3.02-0.16,6.04-0.17,9.06c-0.02,9.24-0.02,18.47,0,27.71c0,1.59,0.13,3.17,0.2,4.76
	C1290.28,417.8,1288.66,417.21,1287.04,416.65z"/>
<path class="st0" d="M1337.42,367.84l0.27,0.12l0.21-0.21c1.11-1.08,2.77,0.07,3.89-0.97l-0.03,0.01c1.11-1.06,2.76,0.05,3.88-0.96
	l-0.04,0.01c1.1-1.08,2.76,0.05,3.88-0.97l-0.04,0.01c1.1-1.08,2.76,0.04,3.88-0.97l-0.04,0.01c1.11-1.09,2.76,0.03,3.89-0.97
	l-0.05,0.02c1.1-1.11,2.76,0.03,3.89-0.98l-0.05,0.02c1.1-1.1,2.76,0.02,3.9-0.97l-0.05,0.02c1.1-1.13,2.76,0.01,3.89-0.98
	l-0.05,0.02c1.1-1.12,2.76,0,3.9-0.97l-0.06,0.03c1.1-1.14,2.77-0.02,3.92-0.97l-0.06,0.04c0.32-0.36,0.59-0.34,0.79,0.12
	l-0.12-0.16c1.3,1.15,0.68,2.68,0.69,4.03c0.05,12.68,0.06,25.35-0.01,38.03c-0.01,1.72,0.92,3.98-1.76,4.81l-0.32-0.12l-0.27,0.22
	c-1.27,0.96-2.91,0.1-4.23,0.86l-0.31-0.12l-0.26,0.22c-1.28,0.97-2.93,0.12-4.26,0.87l-0.3-0.13l-0.24,0.22
	c-1.28,0.99-2.94,0.13-4.27,0.87l-0.29-0.13l-0.24,0.21c-1.28,1-2.95,0.15-4.29,0.88l-0.28-0.14l-0.23,0.21
	c-1.29,1-2.97,0.16-4.32,0.89l-0.26-0.14l-0.22,0.2c-1.45,1.21-3.41-0.14-4.88,0.97l0.05-0.02c-1.44,1.22-3.39-0.12-4.85,0.97
	l0.05-0.02c-1.44,1.23-3.39-0.11-4.86,0.97l0.06-0.03c-1.44,1.25-3.39-0.1-4.87,0.98l0.06-0.03c-1.43,1.27-3.4-0.08-4.87,0.98
	l0.07-0.03c-1.43,1.29-3.4-0.07-4.87,0.99l0.07-0.04c-1.47,1.29-3.47-0.04-4.99,0.99l-0.4-0.1l-0.35,0.22
	c-2.97,1.1-4.38,0.41-4.34-3.1c0.12-12.06,0.04-24.13,0.06-36.19c0-1.53-0.4-3.32,1.81-3.84l0.31,0.11l0.25-0.22
	c0.96-0.79,2.25-0.27,3.27-0.84c0.24,0.18,0.43,0.14,0.57-0.12c0.97-0.78,2.27-0.29,3.3-0.84l0.31,0.11l0.24-0.22
	c0.97-0.8,2.27-0.29,3.3-0.85l0.31,0.11l0.24-0.22c0.98-0.8,2.28-0.31,3.33-0.85l0.29,0.12l0.22-0.22c0.97-0.82,2.29-0.32,3.33-0.86
	l0.29,0.12l0.22-0.22C1335.05,367.89,1336.36,368.37,1337.42,367.84z"/>
<path class="st2" d="M920.1,482.83c0.55-1.03,0.58-2.14,0.58-3.27c-0.01-16.8,0-33.59-0.01-50.39c0-0.64-0.02-1.28-0.1-1.91
	c-0.08-0.72-0.53-1.14-1.25-1.17c-1.44-0.06-2.87-0.09-4.31-0.09c-65.88,0-131.76,0-197.64,0c-1.12,0-2.24-0.02-3.36,0.03
	c-1.65,0.07-2.03,0.41-2.1,1.91c-0.06,1.28-0.04,2.56-0.04,3.84c0,78.54,0,157.09,0,235.63c0,1.44,0.02,2.88,0.06,4.32
	c0.03,1.18,0.75,1.67,1.85,1.68c1.28,0.02,2.56,0.03,3.84,0.03c67,0,134,0,201,0c6.37,0,5.65,0.52,5.66-5.63
	c0.02-15.2,0.01-30.39,0.01-45.59c0-1.12,0.03-2.24-0.03-3.36c-0.07-1.47-0.49-1.87-2.1-1.94c-1.28-0.06-2.56-0.04-3.84-0.04
	c-25.74,0-51.49,0-77.23,0c-19.19,0-38.38,0.01-57.57-0.02c-1.72,0-3.52,0.44-5.18-0.44c1.6-0.02,3.2-0.06,4.8-0.06
	c45.26,0,90.51,0,135.77,0c6.97,0,6.34-0.5,6.35,6.58c0.01,15.04,0.01,30.08,0,45.11c0,1.44-0.03,2.88-0.14,4.31
	c-0.07,0.89-0.71,1.43-1.58,1.51c-1.11,0.1-2.23,0.11-3.35,0.11c-67.96,0-135.93,0.01-203.89,0c-5.03,0-5.05-0.03-5.05-5.48
	c0-53.91,0-107.82,0-161.73c0-25.28,0-50.55,0-75.83c0-5.71-0.27-5.62,5.39-5.62c66.52,0.01,133.05,0.01,199.57,0.01
	c0.64,0,1.28-0.01,1.92,0.01c2.98,0.1,3.27,0.32,3.28,3.38c0.04,11.68,0.02,23.36,0.02,35.03c0,5.44,0,10.88-0.01,16.32
	C921.43,481.18,921.43,482.33,920.1,482.83z"/>
<path class="st2" d="M608.58,485.79c0.21-0.42,0.4-0.85,0.98-0.86c1.44-0.01,2.87-0.06,4.31-0.06c27.33,0,54.67,0,82,0
	c1.28,0,2.56,0.03,3.84-0.02c1.82-0.07,2.07-0.35,2.15-2.34c0.03-0.8,0.02-1.6,0.02-2.4c0-16.47,0-32.94,0-49.41
	c0-1.12-0.03-2.24-0.09-3.35c-0.04-0.72-0.44-1.19-1.18-1.24c-1.12-0.07-2.23-0.1-3.35-0.1c-81.2,0-162.41,0-243.61,0
	c-0.64,0-1.28-0.01-1.92,0.01c-2.38,0.08-2.51,0.2-2.6,2.39c-0.02,0.64-0.01,1.28-0.01,1.92c0,16.79,0,33.58,0,50.37
	c0,4.43-0.09,4.18,4.18,4.18c27.49,0,54.99-0.02,82.48,0.01c6.59,0.01,5.85-0.84,5.85,5.87c0.02,58.69,0.01,117.37,0.01,176.06
	c0,1.6,0.01,3.2,0.05,4.8c0.03,1.15,0.71,1.71,1.81,1.77c0.96,0.05,1.92,0.05,2.88,0.05c19.02,0,38.04,0.01,57.07-0.01
	c1.73,0,3.55,0.36,5.07-0.89c-0.23,0.62-0.6,1.2-1.28,1.27c-1.27,0.12-2.55,0.16-3.83,0.16c-19.19,0.01-38.38,0-57.57,0.01
	c-5.67,0-5.39,0.08-5.39-5.62c0-58.55,0.01-117.1,0-175.65c0-7.67,0.74-6.89-6.97-6.89c-26.39-0.02-52.77-0.01-79.16-0.01
	c-6.35,0-6,0.37-6-5.97c0-16.16,0-32.31,0-48.47c0-1.28-0.02-2.56,0.06-3.84c0.09-1.5,0.6-2.04,2.02-2.14
	c1.27-0.09,2.56-0.07,3.84-0.07c80.76,0,161.51,0,242.27,0c1.28,0,2.56-0.03,3.84,0.05c1.73,0.1,2.15,0.57,2.26,2.42
	c0.07,1.12,0.04,2.24,0.04,3.36c0,16.32,0,32.63,0,48.95c0,0.64,0.01,1.28,0,1.92c-0.09,3.6-0.19,3.7-3.86,3.79
	c-0.8,0.02-1.6,0-2.4,0C667.11,485.8,637.85,485.8,608.58,485.79z"/>
<path class="st2" d="M1061.53,426.29c-5.27-0.1-10.53-0.27-15.8-0.27c-35-0.02-70-0.01-104.99-0.01c-1.12,0-2.24,0.01-3.36,0.03
	c-1.21,0.02-1.66,0.73-1.66,1.85c0,1.28-0.02,2.56-0.02,3.84c0,78.65-0.01,157.31,0.01,235.96c0,6.39-0.73,5.74,5.51,5.74
	c33.88,0.02,67.76,0.03,101.64-0.01c6.54-0.01,13.09-0.28,19.63-0.43c-0.53,0.68-1.26,0.95-2.09,0.95
	c-1.28,0.01-2.56,0.02-3.84,0.02c-38.53,0-77.05,0.01-115.58,0.01c-1.28,0-2.56,0.03-3.83-0.05c-1.72-0.1-2.16-0.57-2.26-2.42
	c-0.07-1.28-0.04-2.56-0.04-3.84c0-78.68,0-157.36,0-236.04c0-6.8-0.45-6.31,6.13-6.31c38.21,0,76.41,0,114.62,0
	c1.28,0,2.56,0.01,3.84,0.02C1060.28,425.34,1061,425.61,1061.53,426.29z"/>
<path class="st2" d="M1190.13,426.31c-4.26,0.03-4.28,0.03-4.28,4.41c-0.01,47.65-0.02,95.3,0.02,142.94
	c0,4.63,0.27,9.26,0.41,13.89c-0.67-0.54-0.93-1.26-0.94-2.1c-0.01-1.28-0.02-2.56-0.02-3.83c0-50.17-0.01-100.34-0.01-150.51
	c0-0.8-0.02-1.6,0.01-2.4C1185.42,425.09,1186.52,424.54,1190.13,426.31z"/>
<path class="st2" d="M1426.95,576.5c0,2.52,0.44,5.11-0.66,7.55c-0.03-1.91-0.1-3.83-0.1-5.74c-0.01-49.83,0-99.66,0-149.48
	c0-1.28-0.03-2.56,0.02-3.83c0.09-2.07,0.22-2.15,3.11-2.48c-1.52,0.72-2.62,1.65-2.38,3.61c0.16,1.26,0.03,2.55,0.03,3.83"/>
<path class="st2" d="M1253.36,575.4c-0.89-1.44-0.75-3.08-0.81-4.65c-0.15-3.98-0.27-7.97-0.27-11.96
	c-0.02-37.96-0.01-75.91-0.01-113.87c0-0.64,0.03-1.28-0.01-1.91c-0.11-1.74,0.49-3.6-0.35-5.18c-0.95-1.78-3.37-0.55-4.68-1.85
	c6.56-0.67,6.24,1.17,6.24,5.92c-0.02,43.22-0.01,86.44-0.01,129.67C1253.46,572.85,1253.4,574.13,1253.36,575.4z"/>
<path class="st2" d="M1352.43,436.85c-0.75,2.02-0.46,4.12-0.46,6.18c-0.02,39.19-0.01,78.38-0.03,117.57
	c0,2.06,0.32,4.16-0.51,6.16c-0.03-1.59-0.1-3.19-0.1-4.79c-0.01-39.92-0.01-79.85,0-119.77c0-1.28,0.02-2.55,0.08-3.83
	C1351.45,437.7,1351.88,437.22,1352.43,436.85z"/>
<path class="st2" d="M883.51,575.96c0.79-1.3,0.64-2.75,0.64-4.18c0-16.04,0-32.09,0-48.13c0-1.42,0.15-2.87-0.64-4.18
	c0.62,0.23,1.21,0.58,1.28,1.26c0.13,1.26,0.17,2.54,0.17,3.81c0.01,15.45,0.01,30.89,0,46.34c0,1.27-0.04,2.55-0.17,3.81
	C884.72,575.37,884.13,575.73,883.51,575.96z"/>
<path class="st2" d="M1314.32,373.59c-0.9,0.7-1.57,1.47-1.53,2.75c0.07,2.39,0.01,4.77,0.01,7.16c0,9.39,0,18.78,0,28.17
	c0,1.27,0.01,2.55,0.06,3.82c0.04,0.98,0.63,1.34,1.56,1.29c0.79-0.04,1.58-0.05,2.38-0.07c-0.66,0.88-1.6,0.95-2.58,0.89
	c-1.49-0.09-2.06-0.6-2.17-1.98c-0.06-0.79-0.04-1.59-0.04-2.39c0-11.81,0-23.62,0-35.42c0-0.8-0.01-1.6,0.05-2.39
	C1312.13,374,1313.04,373.55,1314.32,373.59z"/>
<path class="st2" d="M1375.92,405.05c0.55-0.55,1.31-0.96,1.34-1.87c0.04-0.96,0.06-1.91,0.06-2.87c0-12.61,0.01-25.23-0.01-37.84
	c0-1.43-0.2-2.86-0.31-4.28c0.59,0.31,1.06,0.75,1.11,1.43c0.08,1.11,0.1,2.23,0.1,3.35c0.01,12.45,0,24.9,0,37.35
	c0,0.96,0.01,1.92-0.04,2.87C1378.1,404.6,1377.21,405.08,1375.92,405.05z"/>
<path class="st2" d="M1226.94,358.25c-0.06,2.39-0.16,4.78-0.17,7.17c-0.02,12.91-0.02,25.83-0.03,38.74
	c-1.38-0.81-1.11-2.17-1.11-3.42c-0.02-7.02-0.01-14.04-0.01-21.06c0-6.22,0-12.44,0-18.67
	C1225.64,359.89,1225.58,358.73,1226.94,358.25z"/>
<path class="st2" d="M778.38,616.44c-0.97-0.32-0.94-1.14-0.94-1.92c-0.01-3.49-0.01-6.98-0.01-10.48c0-8.57-0.01-17.14,0.02-25.71
	c0-0.88-0.3-1.97,0.99-2.33C778.42,589.48,778.4,602.96,778.38,616.44z"/>
<path class="st2" d="M778.44,519.43c-1.02-0.25-0.99-1.07-0.99-1.85c-0.01-3.65-0.01-7.29-0.01-10.94c0-7.13-0.01-14.27,0.02-21.4
	c0-0.87-0.33-1.97,0.99-2.31C778.44,495.1,778.44,507.26,778.44,519.43z"/>
<path class="st2" d="M1176.68,566.44c0-1.1-0.07-2.21,0-3.3c0.58-9,0.58-18-0.01-27c-0.07-1.1,0-2.2,0-3.3
	c0.86,0.64,0.97,1.57,0.97,2.54c0,9.51,0,19.01,0,28.52C1177.65,564.86,1177.54,565.79,1176.68,566.44z"/>
<path class="st2" d="M1286.08,677.76c1.26,0,2.52-0.05,3.77,0.01c8.05,0.39,16.09,0.4,24.14,0c1.25-0.06,2.52-0.01,3.77-0.01
	c-0.63,0.87-1.56,0.99-2.53,0.99c-8.87,0-17.75,0-26.62,0C1287.63,678.75,1286.71,678.63,1286.08,677.76z"/>
<path class="st2" d="M1145.05,735.43c0.3,0.11,0.6,0.29,0.9,0.3c6.05,0.24,12.1,0.58,18.15-0.19c-0.33,0.8-0.93,1.27-1.79,1.28
	c-5.19,0.01-10.38,0.01-15.56-0.02C1145.88,736.79,1145.33,736.24,1145.05,735.43z"/>
<path class="st2" d="M1140.2,642.26c2.88-2.88,5.76-5.77,8.65-8.65c-0.16,0.6-0.14,1.38-0.51,1.78c-2.06,2.18-4.18,4.31-6.36,6.36
	C1141.57,642.12,1140.8,642.1,1140.2,642.26z"/>
<path class="st2" d="M1402.45,646.25c-1.94,3.26-4.55,5.84-7.8,7.77C1396.59,650.93,1399.42,648.11,1402.45,646.25z"/>
<path class="st2" d="M1309.34,621.23c-4.67,1.12-9.35,1.15-14.03,0.03C1299.99,621.25,1304.66,621.24,1309.34,621.23z"/>
<path class="st2" d="M1147.89,464.7c-2.47-2.02-4.71-4.26-6.73-6.73C1144.55,459.06,1146.79,461.31,1147.89,464.7z"/>
<path class="st2" d="M1352.04,682.51c4.19-1.12,8.49-0.77,12.75-0.91c-0.74,1.04-1.85,1-2.95,0.99
	C1358.57,682.57,1355.3,682.54,1352.04,682.51z"/>
<path class="st2" d="M1333.15,681.58c2.62,0.47,5.37-0.18,7.92,0.93c-3.1,0.03-6.2,0.06-9.31,0.08c-0.96,0.01-1.86-0.11-2.41-1.05
	C1330.63,680.86,1331.9,680.6,1333.15,681.58z"/>
<path class="st2" d="M1270.61,611.8c-2.14-1.13-3.78-2.76-4.97-4.87C1268.03,607.8,1269.6,609.51,1270.61,611.8z"/>
<path class="st2" d="M1214.3,647.73c1.84,1.05,3.36,2.45,4.63,4.14C1216.52,651.46,1215.01,650.04,1214.3,647.73z"/>
<path class="st2" d="M1426.2,586.59c0.05,2.69,0.36,5.41-0.88,7.95c-0.02-1.99-0.06-3.98-0.07-5.97
	C1425.25,587.78,1425.55,587.1,1426.2,586.59z"/>
<path class="st2" d="M1351.34,569.31c0.1,2.74,0.33,5.48-0.85,8.09c-0.03-2.02-0.07-4.04-0.09-6.06
	C1350.39,570.53,1350.68,569.83,1351.34,569.31z"/>
<path class="st2" d="M1208.36,641.32c1.68,1.27,3.09,2.78,4.15,4.61C1210.2,645.22,1208.79,643.71,1208.36,641.32z"/>
<path class="st2" d="M1176.61,532.11c-0.97-2.23-0.93-4.6-0.93-6.96c0.66,0.48,0.98,1.15,0.98,1.95
	C1176.66,528.76,1176.63,530.43,1176.61,532.11z"/>
<path class="st2" d="M1278.41,676.85c2.37-0.04,4.74-0.09,6.99,0.86c-1.67,0.02-3.34,0.06-5.01,0.07
	C1279.59,677.78,1278.92,677.49,1278.41,676.85z"/>
<path class="st2" d="M1318.45,677.71c2.24-0.96,4.61-0.9,6.98-0.85c-0.51,0.64-1.18,0.93-1.98,0.92
	C1321.78,677.77,1320.11,677.73,1318.45,677.71z"/>
<path class="st2" d="M1064,672.89c2.29-1.01,4.72-0.9,7.13-0.88c-0.5,0.67-1.2,0.97-2.01,0.96
	C1067.41,672.96,1065.71,672.92,1064,672.89z"/>
<path class="st2" d="M1417.56,592.35c-0.03-2.36-0.06-4.72,0.88-6.96c0.02,1.66,0.05,3.33,0.06,4.99
	C1418.5,591.18,1418.21,591.86,1417.56,592.35z"/>
<path class="st2" d="M1365.5,681.56c2.21-1.1,4.6-0.88,6.94-0.95c-0.46,0.68-1.13,1-1.93,1
	C1368.84,681.61,1367.17,681.58,1365.5,681.56z"/>
<path class="st2" d="M1070.17,427.23c-2.42,0.04-4.84,0.15-7.14-0.85c1.7-0.03,3.41-0.07,5.11-0.09
	C1068.95,426.28,1069.65,426.57,1070.17,427.23z"/>
<path class="st2" d="M1076.9,428.24c-2.05,0.02-4.1,0.05-5.99-0.94c1.35-0.02,2.71-0.05,4.06-0.05
	C1075.77,427.26,1076.43,427.59,1076.9,428.24z"/>
<path class="st2" d="M1429.07,656.67c0.94-1.4,2.12-2.5,3.73-3.09C1432.21,655.4,1431.06,656.55,1429.07,656.67z"/>
<path class="st2" d="M1326.19,676.77c1.87-1,3.9-0.97,5.93-0.98c-0.44,0.68-1.09,1.02-1.88,1.02
	C1328.9,676.81,1327.55,676.78,1326.19,676.77z"/>
<path class="st2" d="M1336.24,679.8c-0.88,0.8-2.03,0.72-3.1,0.92c-0.99,0.58-1.97,0.64-2.91-0.1c0.51-0.62,1.18-0.9,1.97-0.9
	C1333.54,679.74,1334.89,679.78,1336.24,679.8z"/>
<path class="st2" d="M1374.45,433.04c-1.81,1.05-3.81,1.01-5.81,0.99c0.47-0.73,1.17-1.03,2.01-1.03
	C1371.91,433.01,1373.18,433.03,1374.45,433.04z"/>
<path class="st2" d="M1175.7,574.12c-0.02-2.12-0.16-4.26,0.88-6.23c0.03,1.4,0.08,2.81,0.09,4.21
	C1176.68,572.92,1176.37,573.62,1175.7,574.12z"/>
<path class="st2" d="M1357.32,435.95c-1.53,1.01-3.29,0.84-4.99,0.99c0.42-0.7,1.06-1.04,1.85-1.04
	C1355.23,435.89,1356.27,435.93,1357.32,435.95z"/>
<path class="st2" d="M1416.55,598.13c-0.04-1.75-0.03-3.49,0.92-5.06C1417.35,594.78,1418.24,596.69,1416.55,598.13z"/>
<path class="st2" d="M1187.32,595.01c0.96,1.54,0.99,3.27,0.98,5c-0.69-0.43-1.03-1.07-1.03-1.86
	C1187.26,597.1,1187.3,596.06,1187.32,595.01z"/>
<path class="st2" d="M1212.19,430.08c-1.69,0.1-3.37,0.1-4.87-0.87C1208.97,429.34,1210.78,428.55,1212.19,430.08z"/>
<path class="st2" d="M1396.78,429.26c-1.59,0.99-3.37,0.93-5.14,0.89C1393.12,428.47,1395.03,429.36,1396.78,429.26z"/>
<path class="st2" d="M1425.27,595.23c0.04,1.77,0.18,3.56-0.88,5.14C1424.49,598.62,1423.6,596.7,1425.27,595.23z"/>
<path class="st2" d="M1293.76,621.13c-1.7,0.11-3.4,0.2-4.89-0.87C1290.53,620.37,1292.35,619.58,1293.76,621.13z"/>
<path class="st2" d="M1217.95,431.05c-1.73,0.11-3.44,0.07-4.99-0.87C1214.65,430.32,1216.51,429.48,1217.95,431.05z"/>
<path class="st2" d="M1391.07,430.23c-1.61,0.98-3.4,0.93-5.19,0.9C1387.37,429.42,1389.3,430.33,1391.07,430.23z"/>
<path class="st2" d="M1452.28,418.65c-1.53,1.01-3.25,0.94-4.96,0.87C1448.75,417.97,1450.6,418.79,1452.28,418.65z"/>
<path class="st2" d="M1315.26,620.31c-1.6,1.04-3.39,0.96-5.18,0.86C1311.58,619.52,1313.5,620.4,1315.26,620.31z"/>
<path class="st2" d="M1077.63,671c1.54-0.96,3.26-0.99,4.99-0.97c-0.43,0.69-1.07,1.01-1.86,1.02
	C1079.71,671.06,1078.67,671.02,1077.63,671z"/>
<path class="st2" d="M1071.78,671.94c1.59-0.93,3.34-0.92,5.1-0.83C1075.39,672.68,1073.51,671.84,1071.78,671.94z"/>
<path class="st2" d="M1332.06,675.82c1.48-1,3.17-1,4.86-1c-0.45,0.75-1.15,1.05-2,1.05
	C1333.97,675.85,1333.02,675.83,1332.06,675.82z"/>
<path class="st2" d="M1223.71,432.02c-1.74,0.09-3.46,0.08-5.02-0.87C1220.39,431.28,1222.26,430.43,1223.71,432.02z"/>
<path class="st2" d="M1385.34,431.19c-1.62,1.01-3.43,0.92-5.22,0.91C1381.61,430.37,1383.57,431.29,1385.34,431.19z"/>
<path class="st2" d="M1272.66,675.91c1.74-0.09,3.45-0.06,5.01,0.85C1275.97,676.64,1274.11,677.47,1272.66,675.91z"/>
<path class="st2" d="M1341.82,678.8c-1.48,1.1-3.19,0.95-4.87,0.92C1338.33,678.13,1340.16,678.95,1341.82,678.8z"/>
<path class="st2" d="M1446.53,419.62c-1.53,1.02-3.26,0.94-4.98,0.88C1442.99,418.91,1444.85,419.76,1446.53,419.62z"/>
<path class="st2" d="M1372.39,680.63c1.48-1.02,3.18-0.93,4.85-0.89C1375.86,681.29,1374.03,680.48,1372.39,680.63z"/>
<path class="st2" d="M1229.47,433c-1.75,0.08-3.49,0.09-5.06-0.88C1226.12,432.24,1228.01,431.37,1229.47,433z"/>
<path class="st2" d="M1379.63,432.15c-1.62,1.01-3.43,0.94-5.23,0.91c0.47-0.7,1.16-1.01,1.97-1.01
	C1377.45,432.06,1378.54,432.11,1379.63,432.15z"/>
<path class="st2" d="M1175.62,524.58c-0.98-1.6-0.92-3.39-0.94-5.16c0.71,0.45,1.03,1.12,1.03,1.93
	C1175.7,522.43,1175.65,523.5,1175.62,524.58z"/>
<path class="st2" d="M1440.79,420.59c-1.54,1.02-3.27,0.93-5,0.88C1437.23,419.87,1439.1,420.72,1440.79,420.59z"/>
<path class="st2" d="M1235.23,433.98c-1.77,0.05-3.53,0.09-5.12-0.88C1231.85,433.2,1233.76,432.32,1235.23,433.98z"/>
<path class="st2" d="M1228.54,405.05c1.69,0,3.39-0.05,4.87,0.99c-0.96,0.02-1.91,0.04-2.87,0.06
	C1229.69,406.11,1228.99,405.81,1228.54,405.05z"/>
<path class="st2" d="M1233.34,406.01c1.69,0,3.39-0.05,4.87,1c-0.96,0.02-1.91,0.05-2.87,0.06
	C1234.48,407.07,1233.79,406.77,1233.34,406.01z"/>
<path class="st2" d="M1238.13,406.96c1.74-0.02,3.47-0.02,5.01,0.99c-1.05,0.02-2.1,0.06-3.15,0.06
	C1239.2,408,1238.56,407.66,1238.13,406.96z"/>
<path class="st2" d="M1240.99,434.96c-1.78,0.03-3.56,0.09-5.17-0.9C1237.58,434.17,1239.51,433.27,1240.99,434.96z"/>
<path class="st2" d="M1368.7,434.01c-1.5,0.98-3.18,0.96-4.88,0.87C1365.23,433.35,1367.05,434.14,1368.7,434.01z"/>
<path class="st2" d="M1195.89,427.28c-1.79,0.03-3.58,0.09-5.19-0.9C1192.47,426.49,1194.4,425.58,1195.89,427.28z"/>
<path class="st2" d="M1413.97,426.36c-1.57,0.95-3.3,0.97-5.05,0.87C1410.38,425.62,1412.26,426.48,1413.97,426.36z"/>
<path class="st2" d="M1435.05,421.55c-1.54,1.04-3.29,0.92-5.02,0.88C1431.47,420.82,1433.35,421.68,1435.05,421.55z"/>
<path class="st2" d="M1346.48,410.87c1.49-0.99,3.18-1.03,4.88-0.97C1349.99,411.56,1348.14,410.72,1346.48,410.87z"/>
<path class="st2" d="M1201.65,428.26c-1.8,0.02-3.61,0.1-5.23-0.91C1198.2,427.46,1200.16,426.53,1201.65,428.26z"/>
<path class="st2" d="M1408.24,427.33c-1.57,0.97-3.32,0.95-5.08,0.88C1404.62,426.57,1406.51,427.44,1408.24,427.33z"/>
<path class="st2" d="M1341.67,411.83c1.48-1.01,3.16-1.01,4.85-0.97C1345.18,412.54,1343.32,411.67,1341.67,411.83z"/>
<path class="st2" d="M1336.87,412.78c1.48-1.02,3.17-1,4.86-0.97c-0.47,0.74-1.17,1.02-2.01,1.01
	C1338.77,412.81,1337.82,412.8,1336.87,412.78z"/>
<path class="st2" d="M1332.06,413.74c1.48-1.03,3.17-1,4.87-0.98c-0.47,0.74-1.16,1.03-2.01,1.03
	C1333.96,413.77,1333.01,413.75,1332.06,413.74z"/>
<path class="st2" d="M1246.76,435.94c-1.8,0.02-3.6,0.09-5.22-0.91C1243.31,435.14,1245.27,434.21,1246.76,435.94z"/>
<path class="st2" d="M1363.06,434.98c-1.55,0.93-3.26,0.98-4.99,0.86C1359.51,434.28,1361.37,435.12,1363.06,434.98z"/>
<path class="st2" d="M1327.26,414.69c1.48-1.03,3.18-0.99,4.87-0.98c-0.46,0.75-1.16,1.04-2.01,1.04
	C1329.16,414.73,1328.21,414.71,1327.26,414.69z"/>
<path class="st2" d="M1174.7,579.86c0-1.76-0.05-3.54,0.92-5.12c0.03,1.07,0.08,2.13,0.08,3.2
	C1175.71,578.73,1175.39,579.4,1174.7,579.86z"/>
<path class="st2" d="M1322.45,415.65c1.48-1.04,3.18-1,4.87-0.99c-0.46,0.75-1.15,1.05-2,1.04
	C1324.36,415.69,1323.41,415.66,1322.45,415.65z"/>
<path class="st2" d="M1254.31,581.31c-1.06-1.63-0.95-3.46-0.88-5.28C1255.12,577.55,1254.19,579.52,1254.31,581.31z"/>
<path class="st2" d="M1350.44,577.94c0.06,1.77,0.11,3.54-0.92,5.11C1349.63,581.32,1348.74,579.4,1350.44,577.94z"/>
<path class="st2" d="M1207.38,429.23c-1.8,0.01-3.61,0.1-5.23-0.92c1.09-0.03,2.17-0.09,3.26-0.09
	C1206.23,428.21,1206.91,428.52,1207.38,429.23z"/>
<path class="st2" d="M1317.53,416.6c1.53-0.99,3.26-1.02,4.99-0.99c-0.42,0.7-1.06,1.03-1.85,1.04
	C1319.63,416.66,1318.58,416.62,1317.53,416.6z"/>
<path class="st2" d="M1287.04,416.65c1.56-0.3,3.21,0.68,4.73-0.31C1290.09,418.04,1289.36,418.08,1287.04,416.65z"/>
<path class="st2" d="M1463.59,417.76c-1.59-0.06-3.17-0.11-4.76-0.17C1461.09,416.28,1461.66,416.3,1463.59,417.76z"/>
<path class="st2" d="M1402.52,428.3c-1.59,0.97-3.35,0.94-5.12,0.88C1398.88,427.52,1400.78,428.4,1402.52,428.3z"/>
<path class="st2" d="M1186.39,589.02c0.96,1.64,0.88,3.45,0.82,5.25C1185.62,592.73,1186.5,590.8,1186.39,589.02z"/>
<path class="st2" d="M1458.02,417.69c-1.53,0.99-3.24,0.94-4.95,0.87C1454.5,417.02,1456.35,417.83,1458.02,417.69z"/>
<path class="st2" d="M1277.45,414.74c1.48-0.08,2.95-0.09,4.22,0.86C1280.21,415.59,1278.62,416.22,1277.45,414.74z"/>
<path class="st2" d="M1376.4,358.19c-1.15,0.95-2.53,1-3.92,0.97C1373.48,357.61,1375.02,358.24,1376.4,358.19z"/>
<path class="st2" d="M1372.54,359.13c-1.13,1-2.52,0.98-3.9,0.97C1369.64,358.58,1371.17,359.2,1372.54,359.13z"/>
<path class="st2" d="M1282.24,415.69c1.48-0.07,2.95-0.08,4.23,0.87C1285.01,416.55,1283.41,417.18,1282.24,415.69z"/>
<path class="st2" d="M1368.69,360.08c-1.14,0.96-2.5,1.01-3.89,0.98C1365.79,359.54,1367.33,360.16,1368.69,360.08z"/>
<path class="st2" d="M1094.11,432.21c-1.37-0.08-2.76-0.08-3.87-1.09C1091.61,431.22,1093.19,430.54,1094.11,432.21z"/>
<path class="st2" d="M1364.85,361.04c-1.14,0.97-2.51,1.01-3.9,0.97C1361.96,360.51,1363.49,361.12,1364.85,361.04z"/>
<path class="st2" d="M1361,362c-1.14,0.95-2.5,1.02-3.89,0.98C1358.12,361.47,1359.65,362.08,1361,362z"/>
<path class="st2" d="M1122.93,444.56c-1.24-0.22-2.27-0.81-3.08-1.78C1121.39,442.49,1122.36,443.17,1122.93,444.56z"/>
<path class="st2" d="M1357.16,362.96c-1.14,0.95-2.5,1.03-3.89,0.97C1354.28,362.43,1355.81,363.04,1357.16,362.96z"/>
<path class="st2" d="M1255.34,364.99c-1.44-0.03-2.89-0.02-4.1-1.01C1252.68,364.02,1254.3,363.31,1255.34,364.99z"/>
<path class="st2" d="M1353.32,363.91c-1.15,0.92-2.49,1.03-3.88,0.97C1350.44,363.4,1351.97,364,1353.32,363.91z"/>
<path class="st2" d="M1259.17,365.95c-1.38-0.05-2.8,0.02-3.93-1.01C1256.64,364.96,1258.2,364.3,1259.17,365.95z"/>
<path class="st2" d="M1349.47,364.87c-1.14,0.93-2.49,1.04-3.88,0.97C1346.6,364.36,1348.12,364.96,1349.47,364.87z"/>
<path class="st2" d="M1263.01,366.9c-1.38-0.05-2.8,0.02-3.93-1.01C1260.48,365.92,1262.04,365.26,1263.01,366.9z"/>
<path class="st2" d="M1345.63,365.82c-1.15,0.91-2.49,1.03-3.88,0.96C1342.76,365.32,1344.28,365.92,1345.63,365.82z"/>
<path class="st2" d="M1266.86,367.85c-1.38-0.04-2.8,0.03-3.93-1C1264.31,366.88,1265.87,366.23,1266.86,367.85z"/>
<path class="st2" d="M1341.79,366.78c-1.15,0.92-2.49,1.04-3.89,0.97C1338.91,366.29,1340.43,366.87,1341.79,366.78z"/>
<path class="st2" d="M1270.7,368.81c-1.38-0.04-2.79,0.03-3.92-1.01C1268.16,367.84,1269.72,367.19,1270.7,368.81z"/>
<path class="st2" d="M1086.46,430.19c-1.46,0.02-2.91,0.02-4.15-0.93C1083.75,429.29,1085.36,428.62,1086.46,430.19z"/>
<path class="st2" d="M1274.54,369.76c-1.39-0.03-2.79,0.04-3.92-1C1272,368.8,1273.55,368.16,1274.54,369.76z"/>
<path class="st2" d="M1278.38,370.72c-1.38-0.03-2.79,0.02-3.92-1C1275.84,369.76,1277.39,369.12,1278.38,370.72z"/>
<path class="st2" d="M1282.22,371.68c-1.38-0.03-2.79,0.02-3.92-1C1279.68,370.72,1281.23,370.08,1282.22,371.68z"/>
<path class="st2" d="M1286.06,372.62c-1.38-0.03-2.79,0.04-3.92-0.99C1283.52,371.68,1285.06,371.04,1286.06,372.62z"/>
<path class="st2" d="M1090.3,431.15c-1.39,0.02-2.76-0.03-3.89-0.98C1087.77,430.24,1089.3,429.62,1090.3,431.15z"/>
<path class="st2" d="M1289.89,373.58c-1.38-0.03-2.78,0.02-3.91-1C1287.36,372.64,1288.91,372,1289.89,373.58z"/>
<path class="st2" d="M1162.24,733.96c-1.37,0.08-2.78,0.34-3.81-0.94C1159.75,733.17,1161.24,732.59,1162.24,733.96z"/>
<path class="st2" d="M1158.37,478.24c-1.04-0.72-1.67-1.73-1.98-2.94C1157.86,475.73,1158.48,476.74,1158.37,478.24z"/>
<path class="st3" d="M1330.23,680.63c0.97,0.03,1.94,0.06,2.91,0.1c-0.04,0.29-0.03,0.57,0,0.86c-1.26-0.01-2.53-0.03-3.79-0.04
	v0.06c-0.25-0.23-0.32-0.43-0.2-0.61c0.11-0.17,0.21-0.25,0.32-0.25C1329.74,680.78,1329.99,680.75,1330.23,680.63z"/>
<path class="st2" d="M1138.18,455.32c-1.16-0.4-2.08-1.12-2.72-2.18C1136.88,453.22,1137.91,453.8,1138.18,455.32z"/>
<path class="st2" d="M1371.11,406c1.28-0.94,2.74-0.93,4.23-0.86C1374.17,406.62,1372.57,405.99,1371.11,406z"/>
<path class="st2" d="M1366.28,406.96c1.29-0.94,2.76-0.94,4.26-0.87C1369.37,407.59,1367.76,406.94,1366.28,406.96z"/>
<path class="st2" d="M1361.48,407.92c1.29-0.96,2.77-0.94,4.27-0.87C1364.57,408.55,1362.95,407.9,1361.48,407.92z"/>
<path class="st2" d="M1243.87,408.07c1.44-0.1,2.86-0.07,4.09,0.84C1246.55,408.88,1245.01,409.47,1243.87,408.07z"/>
<path class="st2" d="M1356.66,408.88c1.29-0.97,2.78-0.95,4.29-0.88C1359.77,409.52,1358.15,408.86,1356.66,408.88z"/>
<path class="st2" d="M1152.71,470.4c-1.07-0.63-1.77-1.56-2.18-2.72C1152.05,467.95,1152.64,468.97,1152.71,470.4z"/>
<path class="st2" d="M1248.67,409.02c1.45-0.1,2.86-0.06,4.1,0.84C1251.35,409.84,1249.8,410.43,1248.67,409.02z"/>
<path class="st2" d="M1351.83,409.84c1.3-0.98,2.8-0.95,4.32-0.89C1354.97,410.49,1353.33,409.81,1351.83,409.84z"/>
<path class="st2" d="M1253.46,409.97c1.45-0.07,2.88-0.09,4.12,0.85C1256.15,410.8,1254.6,411.39,1253.46,409.97z"/>
<path class="st2" d="M1258.26,410.93c1.46-0.09,2.89-0.09,4.14,0.84C1260.97,411.76,1259.41,412.36,1258.26,410.93z"/>
<path class="st2" d="M1081.68,429.15c-1.49,0.08-2.96,0.09-4.26-0.84C1078.9,428.33,1080.5,427.69,1081.68,429.15z"/>
<path class="st2" d="M1263.06,411.88c1.46-0.09,2.91-0.08,4.17,0.85C1265.78,412.72,1264.21,413.33,1263.06,411.88z"/>
<path class="st2" d="M1267.85,412.83c1.47-0.09,2.91-0.07,4.17,0.85C1270.58,413.68,1269.01,414.29,1267.85,412.83z"/>
<path class="st2" d="M1127.7,447.51c-1.23-0.28-2.25-0.88-2.99-1.92C1126.23,445.42,1127.22,446.06,1127.7,447.51z"/>
<path class="st2" d="M1272.65,413.79c1.47-0.09,2.93-0.09,4.19,0.85C1275.39,414.63,1273.81,415.25,1272.65,413.79z"/>
<path class="st2" d="M1130.57,449.46c-1.21-0.32-2.21-0.94-2.93-1.99C1129.13,447.37,1130.13,448,1130.57,449.46z"/>
<path class="st2" d="M1173.85,583.71c-0.09-1.39-0.02-2.74,0.87-3.91C1174.66,581.15,1175.22,582.65,1173.85,583.71z"/>
<path class="st2" d="M1255.29,585.76c-1.03-1.16-0.96-2.57-0.93-3.98C1255.85,582.83,1255.28,584.36,1255.29,585.76z"/>
<path class="st2" d="M1172.69,588.47c0.06-1.43,0.05-2.87,1.02-4.07C1173.66,585.83,1174.37,587.45,1172.69,588.47z"/>
<path class="st2" d="M1256.32,589.51c-0.99-1.1-1.09-2.45-1.08-3.84C1256.86,586.6,1256.19,588.17,1256.32,589.51z"/>
<path class="st2" d="M1174.71,519.49c-0.92-1.17-0.95-2.54-0.88-3.93C1175.22,516.62,1174.66,518.12,1174.71,519.49z"/>
<path class="st2" d="M1188.27,599.94c0.98,1.14,0.95,2.54,0.96,3.92C1187.71,602.84,1188.32,601.31,1188.27,599.94z"/>
<path class="st2" d="M1424.3,600.99c0.05,1.45,0.09,2.89-0.9,4.1C1423.43,603.66,1422.83,602.1,1424.3,600.99z"/>
<path class="st2" d="M1263.98,604.89c-1.07-0.68-1.72-1.66-1.98-2.9C1263.39,602.46,1264.02,603.44,1263.98,604.89z"/>
<path class="st2" d="M1189.21,603.8c0.99,1.11,1.01,2.5,1.08,3.86C1188.62,606.75,1189.31,605.16,1189.21,603.8z"/>
<path class="st2" d="M1340.95,603.94c-0.32,1.21-1,2.15-2.1,2.78C1338.91,605.31,1339.52,604.32,1340.95,603.94z"/>
<path class="st2" d="M1387.85,659.58c-0.67,1.08-1.65,1.73-2.89,1.99C1385.43,660.18,1386.41,659.55,1387.85,659.58z"/>
<path class="st2" d="M1567.1,630.51c0-0.8-0.1-1.55-0.94-1.94c0.27-0.39,0.61-0.7,1.11-0.58s0.71,0.54,0.71,1.03
	C1567.98,629.69,1567.66,630.18,1567.1,630.51z"/>
<path class="st2" d="M1334.04,611.54c-0.63,1.1-1.56,1.78-2.78,2.09C1331.64,612.21,1332.63,611.59,1334.04,611.54z"/>
<path class="st2" d="M1158.36,621.12c0.28-1.22,0.87-2.25,1.89-3C1160.43,619.63,1159.78,620.62,1158.36,621.12z"/>
<path class="st2" d="M1288.94,620.3c-1.39,0.01-2.79,0.05-3.9-1C1286.4,619.36,1287.95,618.72,1288.94,620.3z"/>
<path class="st2" d="M1154.41,626.82c0.35-1.2,1-2.19,2.06-2.88C1156.54,625.44,1155.94,626.46,1154.41,626.82z"/>
<path class="st2" d="M1151.45,630.59c0.41-1.17,1.1-2.12,2.18-2.77C1153.62,629.31,1153.06,630.37,1151.45,630.59z"/>
<path class="st2" d="M1204.53,636.49c1.06,0.67,1.74,1.62,2.12,2.8C1205.14,638.97,1204.55,637.95,1204.53,636.49z"/>
<path class="st2" d="M1410.01,636.56c-0.25,1.25-0.9,2.24-2,2.91C1407.95,638,1408.58,637.01,1410.01,636.56z"/>
<path class="st2" d="M1396.16,641.15c0.41-1.17,1.12-2.1,2.2-2.73C1398.31,639.88,1397.75,640.93,1396.16,641.15z"/>
<path class="st2" d="M1443.29,642.2"/>
<path class="st2" d="M1439.39,646.95c0.32-1.23,1.09-2.11,2.17-2.72C1441.48,645.65,1440.92,646.68,1439.39,646.95z"/>
<path class="st2" d="M1134.42,647.05c0.65-1.07,1.59-1.78,2.76-2.18C1136.95,646.47,1135.9,647.03,1134.42,647.05z"/>
<path class="st2" d="M1130.55,649.91c0.69-1.06,1.66-1.72,2.86-2.07C1133.05,649.34,1132.03,649.95,1130.55,649.91z"/>
<path class="st2" d="M1382.99,653.79c0.64-1.07,1.56-1.78,2.73-2.2C1385.51,653.18,1384.46,653.74,1382.99,653.79z"/>
<path class="st2" d="M1220.95,653.56c1.19,0.38,2.14,1.07,2.8,2.13C1222.28,655.69,1221.25,655.1,1220.95,653.56z"/>
<path class="st2" d="M1391.66,656.68c-0.64,1.1-1.57,1.81-2.81,2.09C1389.21,657.31,1390.22,656.71,1391.66,656.68z"/>
<path class="st2" d="M1370.35,662.29c0.77-1.01,1.82-1.57,3.05-1.82C1372.84,661.85,1371.87,662.52,1370.35,662.29z"/>
<path class="st2" d="M1385.02,661.53c-0.7,1.08-1.7,1.69-2.95,1.93C1382.58,662.09,1383.56,661.45,1385.02,661.53z"/>
<path class="st2" d="M1082.56,670.06c1.16-0.93,2.53-0.97,3.92-0.9C1085.43,670.57,1083.92,670.01,1082.56,670.06z"/>
<path class="st2" d="M1340.72,673.91c1.13-0.94,2.49-1.03,3.87-1.03C1343.63,674.47,1342.08,673.82,1340.72,673.91z"/>
<path class="st2" d="M1263.08,673.85c1.43,0.02,2.87,0.02,4.08,0.98C1265.74,674.78,1264.14,675.45,1263.08,673.85z"/>
<path class="st2" d="M1336.85,674.85c1.15-0.98,2.54-0.95,3.92-0.95C1339.75,675.41,1338.22,674.8,1336.85,674.85z"/>
<path class="st2" d="M1267.86,674.95c1.43-0.09,2.83-0.03,4.06,0.85C1270.52,675.76,1268.98,676.34,1267.86,674.95z"/>
<path class="st2" d="M1350.42,676.86c-1.13,1-2.5,1-3.89,0.97C1347.55,676.38,1349.07,676.96,1350.42,676.86z"/>
<path class="st2" d="M1345.96,677.91c-1.24,1.01-2.72,0.95-4.2,0.92C1342.88,677.25,1344.5,677.94,1345.96,677.91z"/>
<path class="st2" d="M1378,679.64c1.21-0.94,2.63-0.93,4.05-0.88C1380.95,680.19,1379.4,679.6,1378,679.64z"/>
<path class="st2" d="M1097.01,433.1c-1.1,0-2.19-0.02-3-0.94C1095.14,432.06,1096.31,431.8,1097.01,433.1z"/>
<path class="st2" d="M1099.89,434.05c-1.09,0.01-2.15-0.09-2.95-0.98C1098.05,433.02,1099.22,432.79,1099.89,434.05z"/>
<path class="st2" d="M1102.75,435.06c-1.09-0.02-2.15-0.14-2.92-1.04C1100.94,433.99,1102.12,433.73,1102.75,435.06z"/>
<path class="st2" d="M1112.3,439c-1.06-0.08-2.04-0.35-2.77-1.21C1110.61,437.84,1111.82,437.59,1112.3,439z"/>
<path class="st2" d="M1231.38,359.06c-1.17,0.09-2.3,0.02-3.24-0.83C1229.32,358.16,1230.54,357.86,1231.38,359.06z"/>
<path class="st2" d="M1235.22,360.01c-1.17,0.09-2.29,0.02-3.22-0.82C1233.16,359.12,1234.38,358.82,1235.22,360.01z"/>
<path class="st2" d="M1239.06,360.97c-1.16,0.09-2.28,0.02-3.2-0.83C1237.01,360.07,1238.23,359.79,1239.06,360.97z"/>
<path class="st2" d="M1242.9,361.92c-1.16,0.1-2.28,0.03-3.2-0.82C1240.85,361.03,1242.06,360.75,1242.9,361.92z"/>
<path class="st2" d="M1246.73,362.88c-1.15,0.1-2.26,0.02-3.17-0.82C1244.71,361.99,1245.91,361.71,1246.73,362.88z"/>
<path class="st2" d="M1250.57,363.84c-1.15,0.1-2.26,0.02-3.17-0.82C1248.55,362.95,1249.75,362.67,1250.57,363.84z"/>
<path class="st2" d="M1337.42,367.84c-0.97,0.88-2.15,0.93-3.36,0.86C1334.93,367.43,1336.21,367.78,1337.42,367.84z"/>
<path class="st2" d="M1349.4,583.72c0.11,1.18,0.04,2.32-0.82,3.25C1348.51,585.8,1348.21,584.57,1349.4,583.72z"/>
<path class="st2" d="M1333.56,368.8c-0.96,0.88-2.13,0.93-3.33,0.86C1331.09,368.4,1332.36,368.73,1333.56,368.8z"/>
<path class="st2" d="M1329.72,369.76c-0.96,0.87-2.13,0.92-3.33,0.85C1327.26,369.36,1328.52,369.69,1329.72,369.76z"/>
<path class="st2" d="M1348.45,587.56c0.09,1.1-0.04,2.13-0.91,2.93C1347.52,589.42,1347.32,588.28,1348.45,587.56z"/>
<path class="st2" d="M1171.86,591.39c-0.04-1.1-0.02-2.18,0.88-3.01C1172.83,589.49,1173.06,590.65,1171.86,591.39z"/>
<path class="st2" d="M1325.85,370.72c-0.95,0.87-2.11,0.92-3.3,0.85C1323.41,370.33,1324.66,370.65,1325.85,370.72z"/>
<path class="st2" d="M1257.29,592.37c-0.85-0.78-1.06-1.79-0.98-2.88C1257.48,590.16,1257.27,591.3,1257.29,592.37z"/>
<path class="st2" d="M1322.01,371.68c-0.95,0.87-2.11,0.91-3.3,0.84C1319.57,371.29,1320.82,371.61,1322.01,371.68z"/>
<path class="st2" d="M1173.7,514.91c-0.82-0.92-0.91-2.03-0.82-3.18C1174.05,512.55,1173.77,513.76,1173.7,514.91z"/>
<path class="st2" d="M1347.56,590.45c0.06,1.1-0.16,2.09-1.01,2.87C1346.57,592.25,1346.36,591.11,1347.56,590.45z"/>
<path class="st2" d="M1318.14,372.64c-0.94,0.86-2.08,0.92-3.27,0.84C1315.72,372.26,1316.96,372.56,1318.14,372.64z"/>
<path class="st2" d="M1568.03,611.3c0-0.95,0-1.9,0-2.84C1569.33,609.87,1569.33,609.88,1568.03,611.3z"/>
<path class="st2" d="M1170.96,594.27c-0.1-1.09,0.12-2.09,0.91-2.9C1171.87,592.43,1172.07,593.55,1170.96,594.27z"/>
<path class="st2" d="M1178.54,679.38c-0.59-0.32-1.18-0.63-1.77-0.95c0.3-0.26,0.63-0.76,0.91-0.73
	C1178.69,677.81,1178.5,678.68,1178.54,679.38z"/>
<path class="st2" d="M1415.68,601.95c-0.1-1.19-0.05-2.35,0.8-3.32C1416.54,599.81,1416.87,601.06,1415.68,601.95z"/>
<path class="st2" d="M1167.87,602.85c0.04-1.08,0.24-2.1,1.12-2.86C1168.97,601.09,1169.22,602.28,1167.87,602.85z"/>
<path class="st2" d="M1172.74,511.07c-0.86-0.9-0.94-2.03-0.9-3.18C1173.1,508.68,1172.81,509.91,1172.74,511.07z"/>
<path class="st2" d="M1414.68,605.79c-0.07-1.15,0.02-2.26,0.86-3.17C1415.6,603.78,1415.88,604.99,1414.68,605.79z"/>
<path class="st2" d="M1423.28,605.8c0.09,1.14,0.01,2.23-0.84,3.11C1422.39,607.79,1422.12,606.6,1423.28,605.8z"/>
<path class="st2" d="M1413.56,609.59c0.03-1.18,0.11-2.34,1-3.25C1414.61,607.54,1414.99,608.84,1413.56,609.59z"/>
<path class="st2" d="M1190.24,607.57c0.92,0.8,0.95,1.89,0.97,2.99C1189.89,609.88,1190.15,608.7,1190.24,607.57z"/>
<path class="st2" d="M1412.58,612.46c0.05-1.09,0.1-2.18,1.03-2.96C1413.68,610.63,1413.96,611.83,1412.58,612.46z"/>
<path class="st2" d="M1422.3,609.65c0.1,1.08-0.06,2.09-0.89,2.88C1421.42,611.49,1421.21,610.37,1422.3,609.65z"/>
<path class="st2" d="M1191.16,610.48c0.91,0.78,1,1.85,1.04,2.94C1190.85,612.8,1191.12,611.6,1191.16,610.48z"/>
<path class="st2" d="M1421.41,612.52c0.05,1.09-0.08,2.12-0.96,2.91C1420.46,614.35,1420.25,613.21,1421.41,612.52z"/>
<path class="st2" d="M1280.21,617.6c-1.06-0.08-2.03-0.37-2.72-1.27C1278.56,616.41,1279.79,616.14,1280.21,617.6z"/>
<path class="st2" d="M1285.1,619.33c-1.1,0.02-2.17-0.05-2.95-0.99C1283.26,618.3,1284.43,618.06,1285.1,619.33z"/>
<path class="st2" d="M1319.1,619.36c-0.93,0.88-2.07,0.96-3.26,0.85C1316.68,618.98,1317.92,619.28,1319.1,619.36z"/>
<path class="st2" d="M1171.86,507.93c-0.82-0.82-0.99-1.84-0.92-2.93C1172.08,505.71,1171.87,506.85,1171.86,507.93z"/>
<path class="st2" d="M1169.97,502.12c-0.81-0.78-1.06-1.77-1.03-2.86C1170.15,499.9,1169.94,501.05,1169.97,502.12z"/>
<path class="st2" d="M1162.44,706.21c-0.04,1.08-0.28,2.07-1.16,2.79C1161.34,707.94,1161.1,706.74,1162.44,706.21z"/>
<path class="st2" d="M1168.97,499.3c-0.9-0.75-1.06-1.8-1.13-2.87C1169.24,496.98,1168.97,498.2,1168.97,499.3z"/>
<path class="st2" d="M1107.57,662.42c0.73-0.88,1.75-1.1,2.81-1.19C1109.88,662.66,1108.66,662.38,1107.57,662.42z"/>
<path class="st2" d="M1102.73,664.31c0.76-0.89,1.8-1.05,2.89-1.09C1105.03,664.58,1103.83,664.32,1102.73,664.31z"/>
<path class="st2" d="M1099.9,665.3c0.79-0.83,1.79-1.04,2.88-1.01C1102.12,665.5,1100.97,665.29,1099.9,665.3z"/>
<path class="st2" d="M1097.01,666.26c0.8-0.82,1.81-1.02,2.91-0.96C1099.22,666.46,1098.08,666.25,1097.01,666.26z"/>
<path class="st2" d="M1094.07,667.17c0.81-0.87,1.86-0.97,2.96-0.92C1096.31,667.43,1095.16,667.22,1094.07,667.17z"/>
<path class="st2" d="M1241.09,666.01c1.06,0.1,2.04,0.37,2.75,1.24C1242.77,667.19,1241.55,667.45,1241.09,666.01z"/>
<path class="st2" d="M1090.86,668.07c0.93-0.88,2.09-0.95,3.27-0.93C1093.34,668.49,1092.06,668.13,1090.86,668.07z"/>
<path class="st2" d="M1358.08,668.2c0.74-0.85,1.72-1.11,2.79-1.17C1360.35,668.4,1359.15,668.15,1358.08,668.2z"/>
<path class="st2" d="M1087.06,669.04c0.94-0.84,2.08-0.92,3.26-0.85C1089.48,669.41,1088.24,669.11,1087.06,669.04z"/>
<path class="st2" d="M1247.79,668.91c1.08,0.1,2.15,0.2,2.9,1.13C1249.57,670.07,1248.34,670.37,1247.79,668.91z"/>
<path class="st2" d="M1353.23,670.09c0.77-0.86,1.79-1.06,2.88-1.07C1355.49,670.32,1354.31,670.08,1353.23,670.09z"/>
<path class="st2" d="M1250.62,670c1.09,0.01,2.13,0.15,2.92,1.03C1252.43,671.05,1251.26,671.28,1250.62,670z"/>
<path class="st2" d="M1253.48,671c1.09-0.02,2.15,0.09,2.94,0.97C1255.33,672.01,1254.16,672.24,1253.48,671z"/>
<path class="st2" d="M1347.48,672.02c0.81-0.8,1.81-1.02,2.9-0.94C1349.68,672.21,1348.55,672.02,1347.48,672.02z"/>
<path class="st2" d="M1403.2,672.05c0.73-0.87,1.73-1.1,2.8-1.14C1405.44,672.22,1404.26,671.99,1403.2,672.05z"/>
<path class="st2" d="M1256.36,671.94c1.15-0.02,2.28,0.07,3.16,0.94C1258.36,672.95,1257.12,673.26,1256.36,671.94z"/>
<path class="st2" d="M1344.52,672.92c0.82-0.88,1.88-0.96,2.98-0.9C1346.77,673.2,1345.62,672.98,1344.52,672.92z"/>
<path class="st2" d="M1260.19,673.04c1.09-0.09,2.14-0.01,2.97,0.84C1262.07,673.94,1260.94,674.15,1260.19,673.04z"/>
<path class="st2" d="M1398.37,673.96c0.76-0.85,1.77-1.05,2.85-1.06C1400.6,674.14,1399.44,673.92,1398.37,673.96z"/>
<path class="st2" d="M1359.98,673.96c-0.78,0.85-1.79,1.02-2.88,0.97C1357.79,673.78,1358.92,673.98,1359.98,673.96z"/>
<path class="st2" d="M1353.54,675.97c-0.89,0.87-2,0.95-3.15,0.9C1351.17,675.63,1352.39,675.92,1353.54,675.97z"/>
<path class="st2" d="M1389.69,676.81c0.8-0.83,1.83-0.97,2.91-0.9C1391.88,677.02,1390.75,676.81,1389.69,676.81z"/>
<path class="st2" d="M1386.56,677.69c0.89-0.86,2.01-0.94,3.16-0.9C1388.94,678.05,1387.71,677.75,1386.56,677.69z"/>
<path class="st2" d="M1382.7,678.65c0.91-0.84,2.03-0.91,3.18-0.83C1385.06,679,1383.85,678.71,1382.7,678.65z"/>
<path class="st2" d="M1164.89,609.52c0.11-1.05,0.4-2.02,1.26-2.73C1166.08,607.86,1166.35,609.09,1164.89,609.52z"/>
<path class="st2" d="M1114.24,439.9c-0.82-0.05-1.59-0.19-2.05-0.98C1113.1,438.79,1113.89,438.89,1114.24,439.9z"/>
<path class="st2" d="M1116.17,440.85c-0.81-0.05-1.57-0.21-2.02-1.01C1115.04,439.74,1115.82,439.86,1116.17,440.85z"/>
<path class="st2" d="M1118.07,441.83c-0.81-0.06-1.56-0.25-1.99-1.04C1116.97,440.7,1117.75,440.83,1118.07,441.83z"/>
<path class="st2" d="M1119.96,442.85c-0.81-0.09-1.55-0.3-1.98-1.08C1118.89,441.67,1119.68,441.79,1119.96,442.85z"/>
<path class="st2" d="M1124.8,445.66c-0.8-0.08-1.48-0.37-1.89-1.12C1123.76,444.54,1124.51,444.7,1124.8,445.66z"/>
<path class="st2" d="M1165.2,490.54c-0.63-0.47-0.98-1.08-0.93-1.88C1164.99,489.08,1165.17,489.77,1165.2,490.54z"/>
<path class="st2" d="M1133.38,451.5c-0.78-0.14-1.4-0.5-1.74-1.25C1132.47,450.31,1133.19,450.54,1133.38,451.5z"/>
<path class="st2" d="M1166.13,492.52c-0.66-0.48-0.96-1.13-0.91-1.94C1165.96,491.02,1166.13,491.73,1166.13,492.52z"/>
<path class="st2" d="M1291.74,374.81c-0.64-0.42-1.28-0.84-1.92-1.26C1290.75,373.52,1291.54,373.72,1291.74,374.81z"/>
<path class="st2" d="M1176.87,678.32c-0.15,0.75-0.48,1.39-1.12,1.84C1175.79,679.35,1175.99,678.63,1176.87,678.32z"/>
<path class="st2" d="M1179.47,681.56c-0.74-0.58-0.96-1.39-0.99-2.28C1179.54,679.73,1179.57,680.62,1179.47,681.56z"/>
<path class="st2" d="M1226.65,404.03c0.65,0.35,1.31,0.71,1.96,1.06C1227.74,405.13,1226.97,405,1226.65,404.03z"/>
<path class="st2" d="M1258.13,594.43c-0.77-0.49-0.9-1.25-0.85-2.07C1258.14,592.82,1258.24,593.58,1258.13,594.43z"/>
<path class="st2" d="M1346.55,593.32c0.05,0.83-0.1,1.57-0.87,2.05C1345.6,594.53,1345.7,593.76,1346.55,593.32z"/>
<path class="st2" d="M1259.08,596.64c-0.78-0.57-0.98-1.4-1-2.31C1259.15,594.78,1259.17,595.69,1259.08,596.64z"/>
<path class="st2" d="M1170,597.15c-0.07-0.88,0.07-1.7,0.8-2.3C1170.9,595.74,1170.88,596.6,1170,597.15z"/>
<path class="st2" d="M1345.73,595.29c-0.02,0.83-0.15,1.59-0.95,2.06C1344.65,596.45,1344.76,595.67,1345.73,595.29z"/>
<path class="st2" d="M1155.6,474.23c-0.75-0.35-1.1-0.97-1.24-1.75C1155.32,472.68,1155.54,473.4,1155.6,474.23z"/>
<path class="st2" d="M1344.85,597.24c-0.06,0.82-0.24,1.57-1.04,2.01C1343.7,598.35,1343.81,597.56,1344.85,597.24z"/>
<path class="st2" d="M1168.97,600.02c-0.04-0.9,0.11-1.73,0.86-2.34C1169.94,598.61,1169.92,599.49,1168.97,600.02z"/>
<path class="st2" d="M1260.96,600.24c-0.79-0.42-1-1.17-1.1-1.97C1260.99,598.5,1261.09,599.31,1260.96,600.24z"/>
<path class="st2" d="M1343.88,599.16c-0.07,0.81-0.3,1.54-1.1,1.94C1342.74,600.23,1342.87,599.45,1343.88,599.16z"/>
<path class="st2" d="M1262.03,602.05c-0.79-0.39-1.05-1.1-1.14-1.91C1261.91,600.39,1262.06,601.17,1262.03,602.05z"/>
<path class="st2" d="M1342.82,601.04c-0.05,0.8-0.37,1.43-1.11,1.82C1341.77,602.06,1341.97,601.35,1342.82,601.04z"/>
<path class="st2" d="M1167.04,604.82c-0.01-0.82,0.12-1.58,0.89-2.06C1168.03,603.62,1167.93,604.39,1167.04,604.82z"/>
<path class="st2" d="M1159.44,479.99c-0.72-0.4-1.05-1.03-1.12-1.82C1159.18,478.47,1159.39,479.18,1159.44,479.99z"/>
<path class="st2" d="M1166.16,606.76c-0.04-0.82,0.2-1.51,0.9-1.99C1167.08,605.59,1166.93,606.32,1166.16,606.76z"/>
<path class="st2" d="M1161.27,483.01c-0.77-0.41-1.03-1.11-1.13-1.92C1161.16,481.36,1161.3,482.13,1161.27,483.01z"/>
<path class="st2" d="M1163.94,611.44c0.09-0.81,0.25-1.57,1.03-2.03C1165.13,610.34,1165.04,611.14,1163.94,611.44z"/>
<path class="st2" d="M1162.29,484.84c-0.72-0.43-1.02-1.09-1.05-1.9C1162.09,483.3,1162.28,484.02,1162.29,484.84z"/>
<path class="st2" d="M1163.28,486.7c-0.67-0.44-1-1.06-0.99-1.86C1163.06,485.22,1163.24,485.92,1163.28,486.7z"/>
<path class="st2" d="M1162.94,613.33c0.1-0.8,0.3-1.56,1.08-1.99C1164.17,612.27,1164.07,613.08,1162.94,613.33z"/>
<path class="st2" d="M1164.24,702.33c-0.01,0.81-0.18,1.55-0.95,2.01C1163.23,703.49,1163.35,702.73,1164.24,702.33z"/>
<path class="st2" d="M1411.83,614.43c-0.05-0.82,0.07-1.57,0.81-2.07C1412.75,613.2,1412.63,613.95,1411.83,614.43z"/>
<path class="st2" d="M1192.15,613.33c0.74,0.5,0.87,1.24,0.82,2.06C1192.18,614.91,1192.05,614.17,1192.15,613.33z"/>
<path class="st2" d="M1274.51,614.6c-0.8-0.08-1.43-0.41-1.79-1.16C1273.52,613.5,1274.23,613.72,1274.51,614.6z"/>
<path class="st2" d="M1161.28,616.34c0.02-0.8,0.34-1.44,1.03-1.87C1162.28,615.26,1162.09,615.97,1161.28,616.34z"/>
<path class="st2" d="M1276.34,615.7c-0.8-0.11-1.53-0.36-1.92-1.16C1275.34,614.48,1276.13,614.6,1276.34,615.7z"/>
<path class="st2" d="M1330.16,614.4c-0.4,0.72-1.02,1.05-1.82,1.08C1328.67,614.66,1329.37,614.45,1330.16,614.4z"/>
<path class="st2" d="M1328.39,615.45c-0.42,0.78-1.14,1.01-1.95,1.04C1326.78,615.56,1327.54,615.42,1328.39,615.45z"/>
<path class="st2" d="M1410.72,617.28c0.01-0.91,0.18-1.75,0.94-2.35C1411.76,615.88,1411.74,616.78,1410.72,617.28z"/>
<path class="st2" d="M1420.47,615.4c0.04,0.89-0.13,1.7-0.86,2.3C1419.51,616.79,1419.53,615.93,1420.47,615.4z"/>
<path class="st2" d="M1160.19,618.2c0.08-0.8,0.35-1.5,1.11-1.91C1161.31,617.15,1161.15,617.91,1160.19,618.2z"/>
<path class="st2" d="M1193.14,615.89c0.77,0.59,0.95,1.43,0.96,2.34C1193.06,617.75,1193.05,616.84,1193.14,615.89z"/>
<path class="st2" d="M1326.52,616.45c-0.45,0.79-1.19,0.96-2.02,0.96C1324.89,616.49,1325.66,616.37,1326.52,616.45z"/>
<path class="st2" d="M1282.22,618.38c-0.83,0.02-1.61-0.07-2.11-0.86C1281,617.34,1281.78,617.43,1282.22,618.38z"/>
<path class="st2" d="M1324.56,617.37c-0.47,0.73-1.18,0.92-2,0.85C1323.02,617.46,1323.75,617.32,1324.56,617.37z"/>
<path class="st2" d="M1409.86,619.23c-0.02-0.82,0.15-1.55,0.9-2.03C1410.83,618.04,1410.68,618.78,1409.86,619.23z"/>
<path class="st2" d="M1194.06,618.15c0.76,0.47,0.92,1.21,0.92,2.03C1194.09,619.76,1193.98,619,1194.06,618.15z"/>
<path class="st2" d="M1322,618.41c-0.61,0.75-1.43,0.89-2.33,0.8C1320.24,618.32,1321.1,618.3,1322,618.41z"/>
<path class="st2" d="M1419.44,618.28c0.04,0.81-0.12,1.53-0.86,2.01C1418.53,619.48,1418.66,618.74,1419.44,618.28z"/>
<path class="st2" d="M1408.96,621.17c-0.04-0.81,0.23-1.48,0.91-1.95C1409.88,620.01,1409.71,620.73,1408.96,621.17z"/>
<path class="st2" d="M1194.96,620.14c0.71,0.47,0.95,1.16,0.93,1.97C1195.09,621.68,1194.93,620.96,1194.96,620.14z"/>
<path class="st2" d="M1418.63,620.22c0,0.89-0.21,1.68-0.94,2.26C1417.59,621.56,1417.63,620.69,1418.63,620.22z"/>
<path class="st2" d="M1157.17,622.91c0.15-0.79,0.44-1.47,1.22-1.84C1158.41,621.96,1158.26,622.75,1157.17,622.91z"/>
<path class="st2" d="M1408.02,623.09c-0.04-0.8,0.29-1.42,0.93-1.89C1408.92,621.97,1408.75,622.67,1408.02,623.09z"/>
<path class="st2" d="M1195.89,622.1c0.69,0.46,0.98,1.12,0.96,1.93C1196.06,623.62,1195.89,622.91,1195.89,622.1z"/>
<path class="st2" d="M1407.04,625.01c-0.03-0.8,0.32-1.4,0.96-1.86C1407.96,623.91,1407.78,624.6,1407.04,625.01z"/>
<path class="st2" d="M1417.48,623.09c0.04,0.79-0.24,1.43-0.89,1.89C1416.61,624.22,1416.75,623.52,1417.48,623.09z"/>
<path class="st2" d="M1196.84,624.03c0.7,0.45,0.99,1.1,1,1.91C1197.03,625.55,1196.85,624.83,1196.84,624.03z"/>
<path class="st2" d="M1406.02,626.91c0-0.8,0.33-1.43,1.01-1.87C1406.99,625.83,1406.8,626.53,1406.02,626.91z"/>
<path class="st2" d="M1416.59,624.99c0.01,0.81-0.26,1.47-0.95,1.93C1415.65,626.13,1415.82,625.41,1416.59,624.99z"/>
<path class="st2" d="M1197.83,625.91c0.74,0.43,1.01,1.11,1.06,1.92C1198,627.48,1197.82,626.75,1197.83,625.91z"/>
<path class="st2" d="M1404.95,628.79c0.06-0.8,0.34-1.48,1.08-1.9C1406.02,627.72,1405.83,628.45,1404.95,628.79z"/>
<path class="st2" d="M1415.64,626.92c0,0.8-0.27,1.46-0.97,1.91C1414.69,628.03,1414.86,627.32,1415.64,626.92z"/>
<path class="st2" d="M1198.84,627.76c0.78,0.41,1.02,1.12,1.13,1.93C1198.93,629.43,1198.79,628.65,1198.84,627.76z"/>
<path class="st2" d="M1403.84,630.62c0.12-0.8,0.37-1.51,1.16-1.91C1405.04,629.61,1404.91,630.4,1403.84,630.62z"/>
<path class="st2" d="M1414.67,628.83c0,0.79-0.32,1.41-0.99,1.84C1413.73,629.91,1413.92,629.22,1414.67,628.83z"/>
<path class="st2" d="M1200.67,630.78c0.73,0.39,1.06,1.03,1.14,1.83C1200.91,632.32,1200.7,631.6,1200.67,630.78z"/>
<path class="st2" d="M1401.96,633.52c0.12-0.79,0.43-1.46,1.19-1.84C1403.13,632.54,1402.96,633.3,1401.96,633.52z"/>
<path class="st2" d="M1412.95,631.78c-0.06,0.82-0.33,1.52-1.09,1.93C1411.83,632.85,1411.97,632.08,1412.95,631.78z"/>
<path class="st2" d="M1202.57,633.69c0.73,0.37,1.09,0.99,1.19,1.78C1202.85,635.22,1202.63,634.51,1202.57,633.69z"/>
<path class="st2" d="M1411.89,633.66c-0.05,0.79-0.38,1.42-1.09,1.81C1410.86,634.69,1411.07,633.99,1411.89,633.66z"/>
<path class="st2" d="M1399.96,636.34c0.16-0.78,0.49-1.44,1.26-1.78C1401.2,635.43,1401.03,636.21,1399.96,636.34z"/>
<path class="st2" d="M1163.34,704.27c-0.02,0.82-0.17,1.58-0.96,2.03C1162.27,705.42,1162.39,704.65,1163.34,704.27z"/>
<path class="st2" d="M1407.21,640.44c-0.1,0.8-0.45,1.41-1.2,1.76C1406.08,641.39,1406.29,640.68,1407.21,640.44z"/>
<path class="st2" d="M1170.8,504.5c-0.75-0.63-0.89-1.47-0.83-2.39C1170.89,502.69,1170.9,503.58,1170.8,504.5z"/>
<path class="st2" d="M1164.25,488.6c-0.63-0.46-0.98-1.06-0.95-1.86C1164.03,487.15,1164.21,487.84,1164.25,488.6z"/>
<path class="st2" d="M1127.7,651.85c0.37-0.76,1.04-1.08,1.83-1.21C1129.34,651.67,1128.57,651.84,1127.7,651.85z"/>
<path class="st2" d="M1124.76,653.72c0.39-0.78,1.09-1.06,1.88-1.18C1126.44,653.61,1125.66,653.75,1124.76,653.72z"/>
<path class="st2" d="M1122.98,654.77c0.41-0.71,1.05-1.04,1.85-1.09C1124.5,654.54,1123.79,654.74,1122.98,654.77z"/>
<path class="st2" d="M1119.91,656.56c0.41-0.79,1.15-1.01,1.95-1.12C1121.61,656.51,1120.82,656.64,1119.91,656.56z"/>
<path class="st2" d="M1379.15,656.66c0.34-0.77,0.99-1.11,1.77-1.26C1380.79,656.46,1380.02,656.63,1379.15,656.66z"/>
<path class="st2" d="M1118.04,657.56c0.43-0.78,1.16-1,1.97-1.06C1119.68,657.47,1118.91,657.61,1118.04,657.56z"/>
<path class="st2" d="M1224.77,656.45c0.79,0.12,1.41,0.47,1.77,1.21C1225.71,657.6,1225,657.38,1224.77,656.45z"/>
<path class="st2" d="M1116.14,658.53c0.44-0.76,1.16-0.98,1.97-1.02C1117.75,658.44,1116.99,658.57,1116.14,658.53z"/>
<path class="st2" d="M1376.31,658.6c0.37-0.75,1.02-1.07,1.81-1.18C1377.87,658.35,1377.14,658.56,1376.31,658.6z"/>
<path class="st2" d="M1114.2,659.48c0.45-0.76,1.18-0.96,1.99-0.98C1115.82,659.41,1115.06,659.54,1114.2,659.48z"/>
<path class="st2" d="M1227.61,658.43c0.79,0.09,1.43,0.42,1.82,1.15C1228.61,659.53,1227.9,659.32,1227.61,658.43z"/>
<path class="st2" d="M1425.3,659.59c0.36-0.74,0.97-1.1,1.76-1.2C1426.83,659.3,1426.12,659.52,1425.3,659.59z"/>
<path class="st2" d="M1112.25,660.41c0.46-0.77,1.21-0.95,2.02-0.97C1113.89,660.38,1113.12,660.49,1112.25,660.41z"/>
<path class="st2" d="M1373.36,660.48c0.39-0.77,1.07-1.05,1.87-1.15C1374.99,660.32,1374.23,660.48,1373.36,660.48z"/>
<path class="st2" d="M1110.27,661.3c0.47-0.79,1.25-0.92,2.07-0.95C1111.96,661.35,1111.17,661.45,1110.27,661.3z"/>
<path class="st2" d="M1230.52,660.29c0.8,0.1,1.5,0.37,1.9,1.14C1231.55,661.44,1230.78,661.29,1230.52,660.29z"/>
<path class="st2" d="M1232.37,661.4c0.8,0.03,1.44,0.35,1.86,1.05C1233.43,662.42,1232.73,662.23,1232.37,661.4z"/>
<path class="st2" d="M1421.34,662.4c0.39-0.76,1.06-1.08,1.87-1.16C1422.98,662.25,1422.21,662.4,1421.34,662.4z"/>
<path class="st2" d="M1105.52,663.27c0.49-0.76,1.25-0.89,2.07-0.86C1107.14,663.28,1106.37,663.38,1105.52,663.27z"/>
<path class="st2" d="M1368.49,663.31c0.42-0.78,1.15-1.01,1.96-1.09C1370.16,663.23,1369.38,663.36,1368.49,663.31z"/>
<path class="st2" d="M1235.37,663.1c0.8,0.1,1.55,0.3,1.98,1.09C1236.42,664.31,1235.62,664.21,1235.37,663.1z"/>
<path class="st2" d="M1366.6,664.29c0.44-0.76,1.15-0.99,1.97-1.03C1368.22,664.2,1367.46,664.33,1366.6,664.29z"/>
<path class="st2" d="M1382.11,663.43c-0.41,0.76-1.1,1.04-1.92,1.1C1380.49,663.57,1381.26,663.42,1382.11,663.43z"/>
<path class="st2" d="M1418.44,664.3c0.4-0.77,1.09-1.06,1.91-1.13C1420.08,664.18,1419.31,664.32,1418.44,664.3z"/>
<path class="st2" d="M1237.25,664.11c0.81,0.08,1.57,0.25,2.02,1.04C1238.35,665.28,1237.55,665.17,1237.25,664.11z"/>
<path class="st2" d="M1364.69,665.26c0.44-0.76,1.16-0.97,1.98-1C1366.29,665.16,1365.53,665.3,1364.69,665.26z"/>
<path class="st2" d="M1416.64,665.34c0.42-0.7,1.06-1.01,1.85-1.07C1418.15,665.1,1417.44,665.29,1416.64,665.34z"/>
<path class="st2" d="M1239.16,665.07c0.81,0.07,1.57,0.24,2.03,1.02C1240.28,666.24,1239.48,666.14,1239.16,665.07z"/>
<path class="st2" d="M1362.74,666.19c0.46-0.76,1.19-0.95,2.01-0.97C1364.36,666.13,1363.6,666.26,1362.74,666.19z"/>
<path class="st2" d="M1379.1,665.28c-0.42,0.68-1.05,1-1.84,1.01C1377.63,665.52,1378.33,665.33,1379.1,665.28z"/>
<path class="st2" d="M1360.77,667.1c0.47-0.78,1.23-0.93,2.05-0.95C1362.43,667.1,1361.65,667.21,1360.77,667.1z"/>
<path class="st2" d="M1377.27,666.29c-0.44,0.72-1.11,0.99-1.92,1.01C1375.73,666.47,1376.46,666.29,1377.27,666.29z"/>
<path class="st2" d="M1413.6,667.14c0.42-0.78,1.15-1.01,1.96-1.08C1415.26,667.08,1414.48,667.21,1413.6,667.14z"/>
<path class="st2" d="M1167.9,496.54c-0.77-0.49-0.9-1.25-0.9-2.07C1167.93,494.88,1168.03,495.66,1167.9,496.54z"/>
<path class="st2" d="M1243.86,667.25c0.82-0.04,1.53,0.16,2.01,0.89C1245.05,668.19,1244.31,668.04,1243.86,667.25z"/>
<path class="st2" d="M1375.4,667.27c-0.45,0.74-1.15,0.98-1.96,1.01C1373.82,667.42,1374.56,667.25,1375.4,667.27z"/>
<path class="st2" d="M1411.71,668.13"/>
<path class="st2" d="M1245.81,668.11c0.82-0.01,1.6,0.09,2.09,0.87C1247.02,669.13,1246.24,669.04,1245.81,668.11z"/>
<path class="st2" d="M1356.02,669.07c0.49-0.74,1.23-0.9,2.05-0.86C1357.6,669.01,1356.85,669.14,1356.02,669.07z"/>
<path class="st2" d="M1373.49,668.25c-0.45,0.74-1.17,0.96-1.98,0.97C1371.92,668.37,1372.66,668.21,1373.49,668.25z"/>
<path class="st2" d="M1409.79,669.09c0.45-0.76,1.17-0.97,1.98-1C1411.4,669,1410.64,669.14,1409.79,669.09z"/>
<path class="st2" d="M1371.55,669.19c-0.47,0.71-1.16,0.95-1.97,0.94C1370.01,669.33,1370.74,669.17,1371.55,669.19z"/>
<path class="st2" d="M1407.86,670.05c0.45-0.75,1.18-0.96,1.99-0.99C1409.48,669.96,1408.72,670.1,1407.86,670.05z"/>
<path class="st2" d="M1350.88,670.94c0.62-0.76,1.47-0.9,2.38-0.86C1352.7,671.03,1351.81,671.04,1350.88,670.94z"/>
<path class="st2" d="M1369.59,670.12c-0.47,0.66-1.12,0.92-1.91,0.88C1368.11,670.26,1368.82,670.12,1369.59,670.12z"/>
<path class="st2" d="M1405.91,670.97c0.45-0.78,1.2-0.94,2.02-0.97C1407.55,670.93,1406.78,671.06,1405.91,670.97z"/>
<path class="st2" d="M1367.05,671.2c-0.58,0.73-1.37,0.94-2.25,0.93C1365.28,671.15,1366.14,671.1,1367.05,671.2z"/>
<path class="st2" d="M1104.71,435.83c-0.81,0.06-1.54-0.08-2.04-0.82C1103.49,434.92,1104.23,435.04,1104.71,435.83z"/>
<path class="st2" d="M1364.86,672.09c-0.48,0.71-1.18,0.89-1.99,0.84C1363.33,672.17,1364.06,672.05,1364.86,672.09z"/>
<path class="st2" d="M1362.23,673.11c-0.58,0.72-1.37,0.89-2.25,0.85C1360.5,673.06,1361.34,673.02,1362.23,673.11z"/>
<path class="st2" d="M1107.56,436.93c-0.89,0.01-1.72-0.16-2.31-0.92C1106.19,435.91,1107.07,435.94,1107.56,436.93z"/>
<path class="st2" d="M1396.12,674.8c0.59-0.71,1.38-0.89,2.25-0.84C1397.84,674.85,1397.01,674.9,1396.12,674.8z"/>
<path class="st2" d="M1356.54,675.04c-0.62,0.71-1.42,0.86-2.31,0.78C1354.79,674.95,1355.65,674.94,1356.54,675.04z"/>
<path class="st2" d="M1395.47,674.96"/>
<path class="st2" d="M1109.52,437.78c-0.82,0.04-1.53-0.16-2.02-0.88C1108.33,436.84,1109.06,436.99,1109.52,437.78z"/>
<path class="st2" d="M1167.03,494.52c-0.73-0.48-0.93-1.19-0.91-2C1166.93,492.96,1167.08,493.69,1167.03,494.52z"/>
<path class="st2" d="M1149.75,466.75c-0.57-0.14-0.88-0.51-0.97-1.08C1149.3,465.85,1149.62,466.21,1149.75,466.75z"/>
<path class="st2" d="M1150.65,467.78c-0.58-0.15-0.89-0.54-0.98-1.12C1150.23,466.83,1150.56,467.2,1150.65,467.78z"/>
<path class="st2" d="M1153.61,471.5c-0.54-0.16-0.83-0.52-0.88-1.08C1153.02,470.78,1153.32,471.14,1153.61,471.5z"/>
<path class="st2" d="M1154.47,472.6c-0.58-0.17-0.85-0.58-0.92-1.16C1154.1,471.63,1154.41,472.01,1154.47,472.6z"/>
<path class="st2" d="M1156.46,475.39c-0.55-0.17-0.82-0.56-0.84-1.13C1155.9,474.64,1156.18,475.01,1156.46,475.39z"/>
<path class="st2" d="M1259.97,598.39c-0.55-0.23-0.72-0.66-0.67-1.22C1259.77,597.44,1260,597.84,1259.97,598.39z"/>
<path class="st2" d="M1160.24,481.21c-0.56-0.2-0.79-0.62-0.79-1.19C1159.93,480.27,1160.2,480.66,1160.24,481.21z"/>
<path class="st2" d="M1341.69,602.9c-0.01,0.57-0.27,0.96-0.83,1.14C1341.14,603.65,1341.42,603.27,1341.69,602.9z"/>
<path class="st2" d="M1264.87,605.98c-0.57-0.16-0.86-0.55-0.91-1.13C1264.48,605.06,1264.79,605.43,1264.87,605.98z"/>
<path class="st2" d="M1265.75,607.04c-0.58-0.16-0.88-0.57-0.96-1.15C1265.38,606.04,1265.71,606.42,1265.75,607.04z"/>
<path class="st2" d="M1338.83,606.74c-0.06,0.56-0.36,0.9-0.9,1.02C1338.23,607.42,1338.53,607.08,1338.83,606.74z"/>
<path class="st2" d="M1337.96,607.74c-0.09,0.57-0.41,0.91-0.97,1.03C1337.31,608.42,1337.63,608.08,1337.96,607.74z"/>
<path class="st2" d="M1337.04,608.71c-0.1,0.57-0.44,0.91-1.01,1.01C1336.37,609.39,1336.7,609.05,1337.04,608.71z"/>
<path class="st2" d="M1336.08,609.68c-0.12,0.56-0.47,0.88-1.03,0.97C1335.39,610.32,1335.74,610,1336.08,609.68z"/>
<path class="st2" d="M1335.08,610.62c-0.13,0.55-0.47,0.85-1.02,0.91C1334.4,611.22,1334.74,610.92,1335.08,610.62z"/>
<path class="st2" d="M1271.65,612.63c-0.58-0.07-0.98-0.35-1.15-0.93C1271.08,611.76,1271.46,612.08,1271.65,612.63z"/>
<path class="st2" d="M1272.67,613.42c-0.57-0.02-0.93-0.3-1.09-0.85C1271.94,612.85,1272.31,613.13,1272.67,613.42z"/>
<path class="st2" d="M1566.16,631.48c0.32-0.33,0.63-0.65,0.95-0.98C1566.79,630.82,1566.48,631.15,1566.16,631.48z"/>
<path class="st2" d="M1162.32,614.45c-0.02-0.57,0.17-1.02,0.73-1.24C1163.07,613.77,1162.81,614.18,1162.32,614.45z"/>
<path class="st2" d="M1331.35,613.56c-0.18,0.55-0.56,0.82-1.14,0.82C1330.59,614.1,1330.97,613.83,1331.35,613.56z"/>
<path class="st2" d="M1277.46,616.32c-0.57,0.04-1.02-0.15-1.24-0.72C1276.78,615.58,1277.19,615.83,1277.46,616.32z"/>
<path class="st2" d="M1156.43,623.99c0.04-0.58,0.28-1.01,0.86-1.21C1157.28,623.39,1156.99,623.78,1156.43,623.99z"/>
<path class="st2" d="M1153.6,627.85c0.06-0.57,0.33-0.97,0.9-1.14C1154.43,627.27,1154.12,627.65,1153.6,627.85z"/>
<path class="st2" d="M1199.86,629.57c0.57,0.2,0.79,0.62,0.8,1.2C1200.17,630.51,1199.9,630.12,1199.86,629.57z"/>
<path class="st2" d="M1150.59,631.62c0.09-0.58,0.39-0.98,0.97-1.15C1151.51,631.09,1151.18,631.47,1150.59,631.62z"/>
<path class="st2" d="M1403.14,631.7c0.02-0.57,0.24-1.01,0.82-1.21C1403.93,631.07,1403.65,631.47,1403.14,631.7z"/>
<path class="st2" d="M1413.65,630.73c-0.02,0.56-0.25,0.96-0.8,1.14C1413.12,631.5,1413.38,631.12,1413.65,630.73z"/>
<path class="st2" d="M1149.72,632.63c0.09-0.57,0.39-0.96,0.96-1.1C1150.58,632.09,1150.25,632.45,1149.72,632.63z"/>
<path class="st2" d="M1227.56,358.22l-0.34,0.23l-0.41-0.01c0.07-0.24,0.14-0.47,0.21-0.71
	C1227.2,357.89,1227.38,358.05,1227.56,358.22z"/>
<path class="st2" d="M1377.13,358.35l-0.41,0.03l-0.38-0.15c0.16-0.18,0.32-0.35,0.48-0.53
	C1376.92,357.91,1377.02,358.13,1377.13,358.35z"/>
<path class="st2" d="M1148.83,633.62c0.08-0.56,0.39-0.92,0.94-1.05C1149.46,632.92,1149.14,633.27,1148.83,633.62z"/>
<path class="st2" d="M1201.73,632.51c0.55,0.18,0.81,0.57,0.82,1.14C1202.27,633.27,1202,632.89,1201.73,632.51z"/>
<path class="st2" d="M1401.21,634.58c0.04-0.57,0.29-0.99,0.86-1.17C1402.01,633.97,1401.72,634.36,1401.21,634.58z"/>
<path class="st2" d="M1203.67,635.36c0.57,0.17,0.83,0.57,0.88,1.15C1204.04,636.29,1203.74,635.91,1203.67,635.36z"/>
<path class="st2" d="M1410.77,635.53c-0.04,0.55-0.3,0.93-0.83,1.1C1410.21,636.27,1410.49,635.9,1410.77,635.53z"/>
<path class="st2" d="M1399.17,637.41c0.07-0.58,0.33-1,0.91-1.19C1400.06,636.83,1399.75,637.22,1399.17,637.41z"/>
<path class="st2" d="M1398.35,638.43c0.05-0.57,0.34-0.95,0.9-1.11C1398.95,637.69,1398.65,638.06,1398.35,638.43z"/>
<path class="st2" d="M1206.55,639.19c0.58,0.16,0.87,0.55,0.94,1.13C1206.95,640.13,1206.64,639.76,1206.55,639.19z"/>
<path class="st2" d="M1408.05,639.43c-0.09,0.56-0.36,0.96-0.94,1.11C1407.2,639.98,1407.52,639.61,1408.05,639.43z"/>
<path class="st2" d="M1207.44,640.25c0.55,0.14,0.85,0.5,0.91,1.06C1208.05,640.96,1207.75,640.61,1207.44,640.25z"/>
<path class="st2" d="M1395.28,642.17c0.1-0.58,0.41-0.98,0.99-1.13C1396.22,641.66,1395.88,642.03,1395.28,642.17z"/>
<path class="st2" d="M1139.16,643.19c0.13-0.55,0.49-0.86,1.05-0.94C1139.86,642.56,1139.51,642.88,1139.16,643.19z"/>
<path class="st2" d="M1394.39,643.17c0.1-0.58,0.42-0.96,0.99-1.1C1395.28,642.65,1394.94,643.01,1394.39,643.17z"/>
<path class="st2" d="M1405.97,642.25c-0.07,0.53-0.36,0.87-0.87,1.04C1405.39,642.94,1405.68,642.6,1405.97,642.25z"/>
<path class="st2" d="M1442.43,643.21c0.1-0.56,0.39-0.94,0.96-1.09C1443.28,642.66,1442.95,643.02,1442.43,643.21z"/>
<path class="st2" d="M1138.12,644.1c0.15-0.57,0.52-0.88,1.1-0.96C1139.04,643.67,1138.68,644,1138.12,644.1z"/>
<path class="st2" d="M1393.47,644.16c0.1-0.57,0.42-0.93,0.99-1.06C1394.33,643.63,1394,643.98,1393.47,644.16z"/>
<path class="st2" d="M1405.14,643.25c-0.1,0.55-0.4,0.92-0.95,1.07C1404.5,643.97,1404.82,643.61,1405.14,643.25z"/>
<path class="st2" d="M1441.58,644.2"/>
<path class="st2" d="M1137.07,644.99c0.16-0.58,0.56-0.88,1.14-0.97C1138.06,644.6,1137.68,644.93,1137.07,644.99z"/>
<path class="st2" d="M1392.55,645.13c0.1-0.56,0.42-0.91,0.98-1.03C1393.2,644.44,1392.87,644.79,1392.55,645.13z"/>
<path class="st2" d="M1404.25,644.25c-0.1,0.57-0.41,0.95-0.99,1.09C1403.37,644.77,1403.7,644.41,1404.25,644.25z"/>
<path class="st2" d="M1391.61,646.1c0.1-0.55,0.42-0.89,0.97-1.01C1392.26,645.43,1391.93,645.76,1391.61,646.1z"/>
<path class="st2" d="M1403.35,645.25c-0.1,0.58-0.42,0.96-1.01,1.09C1402.42,645.74,1402.76,645.38,1403.35,645.25z"/>
<path class="st2" d="M1212.39,645.81c0.58,0.13,0.93,0.49,1.07,1.07C1212.81,646.82,1212.45,646.46,1212.39,645.81z"/>
<path class="st2" d="M1390.65,647.06c0.1-0.55,0.43-0.88,0.98-0.98C1391.3,646.4,1390.97,646.73,1390.65,647.06z"/>
<path class="st2" d="M1133.32,647.93c0.16-0.57,0.56-0.85,1.13-0.9C1134.24,647.55,1133.86,647.85,1133.32,647.93z"/>
<path class="st2" d="M1213.35,646.77c0.58,0.13,0.93,0.49,1.07,1.06C1213.77,647.78,1213.41,647.42,1213.35,646.77z"/>
<path class="st2" d="M1389.67,648.01c0.12-0.55,0.46-0.87,1.01-0.97C1390.34,647.36,1390,647.68,1389.67,648.01z"/>
<path class="st2" d="M1388.67,648.95c0.12-0.56,0.47-0.88,1.03-0.98C1389.36,648.3,1389.02,648.63,1388.67,648.95z"/>
<path class="st2" d="M1387.67,649.89c0.13-0.57,0.49-0.89,1.06-0.99C1388.56,649.43,1388.2,649.76,1387.67,649.89z"/>
<path class="st2" d="M1436.59,649.88c0.12-0.57,0.47-0.92,1.04-1.05C1437.5,649.4,1437.15,649.74,1436.59,649.88z"/>
<path class="st2" d="M1129.41,650.75c0.19-0.58,0.62-0.82,1.19-0.86C1130.38,650.42,1129.99,650.71,1129.41,650.75z"/>
<path class="st2" d="M1386.64,650.8c0.14-0.58,0.52-0.89,1.1-0.99C1387.58,650.37,1387.22,650.7,1386.64,650.8z"/>
<path class="st2" d="M1435.64,650.85c0.12-0.57,0.46-0.92,1.03-1.05C1436.54,650.36,1436.2,650.71,1435.64,650.85z"/>
<path class="st2" d="M1385.61,651.7c0.16-0.58,0.55-0.89,1.13-0.99C1386.6,651.31,1386.23,651.64,1385.61,651.7z"/>
<path class="st2" d="M1434.67,651.8c0.12-0.57,0.48-0.91,1.05-1.04C1435.58,651.32,1435.23,651.67,1434.67,651.8z"/>
<path class="st2" d="M1126.52,652.65c0.2-0.57,0.63-0.8,1.21-0.83C1127.5,652.35,1127.1,652.64,1126.52,652.65z"/>
<path class="st2" d="M1218.92,651.86c0.56,0.07,0.93,0.37,1.07,0.92C1219.63,652.47,1219.28,652.16,1218.92,651.86z"/>
<path class="st2" d="M1433.7,652.75c0.13-0.57,0.49-0.91,1.06-1.03C1434.62,652.28,1434.27,652.63,1433.7,652.75z"/>
<path class="st2" d="M1219.92,652.72c0.58,0.08,0.98,0.37,1.13,0.95C1220.48,653.59,1220.1,653.27,1219.92,652.72z"/>
<path class="st2" d="M1381.9,654.68c0.16-0.56,0.54-0.85,1.11-0.9C1382.64,654.08,1382.27,654.38,1381.9,654.68z"/>
<path class="st2" d="M1394.74,653.92c-0.13,0.59-0.51,0.9-1.09,1.01C1393.79,654.35,1394.15,654.01,1394.74,653.92z"/>
<path class="st2" d="M1121.74,655.54c0.21-0.57,0.65-0.77,1.22-0.77C1122.7,655.27,1122.3,655.54,1121.74,655.54z"/>
<path class="st2" d="M1380.8,655.52c0.18-0.58,0.6-0.85,1.18-0.92C1381.8,655.18,1381.41,655.49,1380.8,655.52z"/>
<path class="st2" d="M1393.73,654.84c-0.14,0.57-0.52,0.88-1.08,0.98C1392.82,655.28,1393.18,654.95,1393.73,654.84z"/>
<path class="st2" d="M1223.73,655.67c0.57,0.05,0.98,0.31,1.15,0.88C1224.32,656.49,1223.94,656.19,1223.73,655.67z"/>
<path class="st2" d="M1392.71,655.76c-0.15,0.54-0.51,0.84-1.06,0.93C1392,656.38,1392.36,656.07,1392.71,655.76z"/>
<path class="st2" d="M1378.01,657.52c0.18-0.57,0.58-0.83,1.16-0.86C1378.94,657.16,1378.56,657.45,1378.01,657.52z"/>
<path class="st2" d="M1428.01,657.59"/>
<path class="st2" d="M1226.57,657.68c0.57,0.02,0.96,0.27,1.14,0.83C1227.33,658.23,1226.95,657.96,1226.57,657.68z"/>
<path class="st2" d="M1426.97,658.5"/>
<path class="st2" d="M1375.12,659.43c0.19-0.57,0.6-0.81,1.18-0.82C1376.06,659.1,1375.67,659.38,1375.12,659.43z"/>
<path class="st2" d="M1388.93,658.68c-0.15,0.56-0.55,0.84-1.1,0.92C1388.02,659.09,1388.39,658.78,1388.93,658.68z"/>
<path class="st2" d="M1229.46,659.59c0.57,0,0.99,0.24,1.18,0.8C1230.09,660.34,1229.71,660.07,1229.46,659.59z"/>
<path class="st2" d="M1424.19,660.48"/>
<path class="st2" d="M1234.26,662.46c0.57-0.02,1.01,0.18,1.23,0.74C1234.93,663.21,1234.52,662.95,1234.26,662.46z"/>
<path class="st2" d="M1131.6,450.23c-0.57-0.02-0.95-0.29-1.12-0.84C1130.86,449.67,1131.23,449.95,1131.6,450.23z"/>
<path class="st2" d="M1134.42,452.3c-0.58-0.06-0.99-0.33-1.16-0.91C1133.84,451.44,1134.23,451.75,1134.42,452.3z"/>
<path class="st2" d="M1380.29,664.44c-0.18,0.55-0.58,0.79-1.14,0.81C1379.53,664.98,1379.91,664.71,1380.29,664.44z"/>
<path class="st2" d="M1135.44,453.12c-0.56-0.04-0.92-0.33-1.08-0.88C1134.72,452.54,1135.08,452.83,1135.44,453.12z"/>
<path class="st2" d="M1139.19,456.19c-0.58-0.09-0.97-0.4-1.12-0.98C1138.66,455.29,1139.03,455.62,1139.19,456.19z"/>
<path class="st2" d="M1164.11,735.2c-0.37-0.39-0.74-0.77-1.1-1.16C1163.61,734.2,1163.98,734.59,1164.11,735.2z"/>
<path class="st2" d="M1140.19,457.08c-0.57-0.09-0.94-0.4-1.08-0.97C1139.65,456.23,1140.01,456.55,1140.19,457.08z"/>
<path class="st2" d="M1141.17,457.98c-0.56-0.08-0.91-0.4-1.04-0.95C1140.48,457.35,1140.83,457.67,1141.17,457.98z"/>
<path class="st2" d="M1329.48,680.73c-0.09,0.28-0.12,0.57-0.11,0.86C1328.52,681.19,1328.74,680.93,1329.48,680.73z"/>
<path class="st2" d="M1148.82,465.72c-0.55-0.13-0.86-0.48-0.95-1.03C1148.19,465.03,1148.51,465.37,1148.82,465.72z"/>
<path class="st4" d="M1002.39,549.97c0-21.75,0-43.5,0-65.26c0-1.28-0.03-2.56,0.02-3.84c0.08-1.72,0.55-2.21,2.38-2.22
	c5.28-0.05,10.55-0.06,15.83-0.02c9.27,0.06,18.55-0.3,27.81,0.39c7.86,0.58,15.48,2.28,22.76,5.35
	c17.19,7.24,28.08,20.16,33.46,37.81c3.63,11.91,4.52,24.14,3.36,36.54c-0.66,7.03-1.85,13.93-4.17,20.62
	c-7.17,20.68-21.5,33.52-42.62,38.94c-6.7,1.72-13.54,2.39-20.42,2.47c-11.51,0.14-23.02,0.04-34.53,0.04c-0.16,0-0.32,0-0.48,0
	c-3.2-0.08-3.31-0.18-3.39-3.17c-0.03-1.12-0.01-2.24-0.01-3.36C1002.39,592.84,1002.39,571.4,1002.39,549.97z"/>
<text transform="matrix(1.0229 0.0148 -0.0145 0.9999 1150.2026 753.0241)" class="st1 st5 st6">Market</text>
</svg>